<mxfile host="65bd71144e">
    <diagram id="j8yFW6QjV8m57by2A9H2" name="DRAFT-2">
        <mxGraphModel dx="2876" dy="2226" grid="1" gridSize="10" guides="1" tooltips="1" connect="1" arrows="1" fold="1" page="1" pageScale="1" pageWidth="850" pageHeight="1100" math="0" shadow="0">
            <root>
                <mxCell id="0"/>
                <mxCell id="1" parent="0"/>
                <mxCell id="reXhHC1dDX01Fzy9teYw-31" value="&lt;span style=&quot;font-size: 40px;&quot;&gt;&lt;i&gt;MODEL&lt;/i&gt;&lt;/span&gt;" style="shape=folder;fontStyle=1;tabWidth=360;tabHeight=190;tabPosition=left;html=1;boundedLbl=1;labelInHeader=1;container=1;collapsible=0;recursiveResize=0;" parent="1" vertex="1">
                    <mxGeometry x="-425" y="-450" width="1890" height="1220" as="geometry"/>
                </mxCell>
                <mxCell id="EItBFqwYidHV2KRVBO9W-1" value="&lt;b&gt;Coordinate&lt;/b&gt;" style="swimlane;fontStyle=0;align=center;verticalAlign=top;childLayout=stackLayout;horizontal=1;startSize=30;horizontalStack=0;resizeParent=1;resizeParentMax=0;resizeLast=0;collapsible=0;marginBottom=0;html=1;" parent="reXhHC1dDX01Fzy9teYw-31" vertex="1">
                    <mxGeometry x="1215" y="340" width="220" height="238" as="geometry"/>
                </mxCell>
                <mxCell id="EItBFqwYidHV2KRVBO9W-2" value="attributes" style="text;html=1;strokeColor=none;fillColor=none;align=center;verticalAlign=middle;spacingLeft=4;spacingRight=4;overflow=hidden;rotatable=0;points=[[0,0.5],[1,0.5]];portConstraint=eastwest;" parent="EItBFqwYidHV2KRVBO9W-1" vertex="1">
                    <mxGeometry y="30" width="220" height="20" as="geometry"/>
                </mxCell>
                <mxCell id="EItBFqwYidHV2KRVBO9W-3" value="- row: int" style="text;html=1;strokeColor=none;fillColor=none;align=left;verticalAlign=middle;spacingLeft=4;spacingRight=4;overflow=hidden;rotatable=0;points=[[0,0.5],[1,0.5]];portConstraint=eastwest;" parent="EItBFqwYidHV2KRVBO9W-1" vertex="1">
                    <mxGeometry y="50" width="220" height="20" as="geometry"/>
                </mxCell>
                <mxCell id="EItBFqwYidHV2KRVBO9W-4" value="- col: int" style="text;html=1;strokeColor=none;fillColor=none;align=left;verticalAlign=middle;spacingLeft=4;spacingRight=4;overflow=hidden;rotatable=0;points=[[0,0.5],[1,0.5]];portConstraint=eastwest;" parent="EItBFqwYidHV2KRVBO9W-1" vertex="1">
                    <mxGeometry y="70" width="220" height="20" as="geometry"/>
                </mxCell>
                <mxCell id="EItBFqwYidHV2KRVBO9W-5" value="" style="line;strokeWidth=1;fillColor=none;align=left;verticalAlign=middle;spacingTop=-1;spacingLeft=3;spacingRight=3;rotatable=0;labelPosition=right;points=[];portConstraint=eastwest;" parent="EItBFqwYidHV2KRVBO9W-1" vertex="1">
                    <mxGeometry y="90" width="220" height="8" as="geometry"/>
                </mxCell>
                <mxCell id="EItBFqwYidHV2KRVBO9W-6" value="operations" style="text;html=1;strokeColor=none;fillColor=none;align=center;verticalAlign=middle;spacingLeft=4;spacingRight=4;overflow=hidden;rotatable=0;points=[[0,0.5],[1,0.5]];portConstraint=eastwest;" parent="EItBFqwYidHV2KRVBO9W-1" vertex="1">
                    <mxGeometry y="98" width="220" height="20" as="geometry"/>
                </mxCell>
                <mxCell id="EItBFqwYidHV2KRVBO9W-7" value="+ getRow(): int" style="text;html=1;strokeColor=none;fillColor=none;align=left;verticalAlign=middle;spacingLeft=4;spacingRight=4;overflow=hidden;rotatable=0;points=[[0,0.5],[1,0.5]];portConstraint=eastwest;" parent="EItBFqwYidHV2KRVBO9W-1" vertex="1">
                    <mxGeometry y="118" width="220" height="20" as="geometry"/>
                </mxCell>
                <mxCell id="EItBFqwYidHV2KRVBO9W-8" value="+ getCol(): int" style="text;html=1;strokeColor=none;fillColor=none;align=left;verticalAlign=middle;spacingLeft=4;spacingRight=4;overflow=hidden;rotatable=0;points=[[0,0.5],[1,0.5]];portConstraint=eastwest;" parent="EItBFqwYidHV2KRVBO9W-1" vertex="1">
                    <mxGeometry y="138" width="220" height="20" as="geometry"/>
                </mxCell>
                <mxCell id="EItBFqwYidHV2KRVBO9W-9" value="+ getLeft(): Coordinate" style="text;html=1;strokeColor=none;fillColor=none;align=left;verticalAlign=middle;spacingLeft=4;spacingRight=4;overflow=hidden;rotatable=0;points=[[0,0.5],[1,0.5]];portConstraint=eastwest;" parent="EItBFqwYidHV2KRVBO9W-1" vertex="1">
                    <mxGeometry y="158" width="220" height="20" as="geometry"/>
                </mxCell>
                <mxCell id="EItBFqwYidHV2KRVBO9W-10" value="+ getRight(): Coordinate" style="text;html=1;strokeColor=none;fillColor=none;align=left;verticalAlign=middle;spacingLeft=4;spacingRight=4;overflow=hidden;rotatable=0;points=[[0,0.5],[1,0.5]];portConstraint=eastwest;" parent="EItBFqwYidHV2KRVBO9W-1" vertex="1">
                    <mxGeometry y="178" width="220" height="20" as="geometry"/>
                </mxCell>
                <mxCell id="EItBFqwYidHV2KRVBO9W-11" value="+ getUp(): Coordinate" style="text;html=1;strokeColor=none;fillColor=none;align=left;verticalAlign=middle;spacingLeft=4;spacingRight=4;overflow=hidden;rotatable=0;points=[[0,0.5],[1,0.5]];portConstraint=eastwest;" parent="EItBFqwYidHV2KRVBO9W-1" vertex="1">
                    <mxGeometry y="198" width="220" height="20" as="geometry"/>
                </mxCell>
                <mxCell id="EItBFqwYidHV2KRVBO9W-12" value="+ getDown(): Coordinate" style="text;html=1;strokeColor=none;fillColor=none;align=left;verticalAlign=middle;spacingLeft=4;spacingRight=4;overflow=hidden;rotatable=0;points=[[0,0.5],[1,0.5]];portConstraint=eastwest;" parent="EItBFqwYidHV2KRVBO9W-1" vertex="1">
                    <mxGeometry y="218" width="220" height="20" as="geometry"/>
                </mxCell>
                <mxCell id="zFvDSEM8ExGS-bmuOnvd-1" value="&lt;b&gt;Board&lt;/b&gt;" style="swimlane;fontStyle=0;align=center;verticalAlign=top;childLayout=stackLayout;horizontal=1;startSize=30;horizontalStack=0;resizeParent=1;resizeParentMax=0;resizeLast=0;collapsible=0;marginBottom=0;html=1;" parent="reXhHC1dDX01Fzy9teYw-31" vertex="1">
                    <mxGeometry x="805" y="380" width="320" height="180" as="geometry"/>
                </mxCell>
                <mxCell id="zFvDSEM8ExGS-bmuOnvd-2" value="attributes" style="text;html=1;strokeColor=none;fillColor=none;align=center;verticalAlign=middle;spacingLeft=4;spacingRight=4;overflow=hidden;rotatable=0;points=[[0,0.5],[1,0.5]];portConstraint=eastwest;" parent="zFvDSEM8ExGS-bmuOnvd-1" vertex="1">
                    <mxGeometry y="30" width="320" height="20" as="geometry"/>
                </mxCell>
                <mxCell id="zFvDSEM8ExGS-bmuOnvd-3" value="- tileOccupancy : Map&amp;lt;Coordinate, Tile&amp;gt;" style="text;html=1;strokeColor=none;fillColor=none;align=left;verticalAlign=middle;spacingLeft=4;spacingRight=4;overflow=hidden;rotatable=0;points=[[0,0.5],[1,0.5]];portConstraint=eastwest;" parent="zFvDSEM8ExGS-bmuOnvd-1" vertex="1">
                    <mxGeometry y="50" width="320" height="20" as="geometry"/>
                </mxCell>
                <mxCell id="zFvDSEM8ExGS-bmuOnvd-4" value="" style="line;strokeWidth=1;fillColor=none;align=left;verticalAlign=middle;spacingTop=-1;spacingLeft=3;spacingRight=3;rotatable=0;labelPosition=right;points=[];portConstraint=eastwest;" parent="zFvDSEM8ExGS-bmuOnvd-1" vertex="1">
                    <mxGeometry y="70" width="320" height="8" as="geometry"/>
                </mxCell>
                <mxCell id="zFvDSEM8ExGS-bmuOnvd-5" value="operations" style="text;html=1;strokeColor=none;fillColor=none;align=center;verticalAlign=middle;spacingLeft=4;spacingRight=4;overflow=hidden;rotatable=0;points=[[0,0.5],[1,0.5]];portConstraint=eastwest;" parent="zFvDSEM8ExGS-bmuOnvd-1" vertex="1">
                    <mxGeometry y="78" width="320" height="22" as="geometry"/>
                </mxCell>
                <mxCell id="1yL_GHk3mwXWPiJm3IX2-75" value="+ getTile(coordinate: Coordinate) : Tile" style="text;html=1;strokeColor=none;fillColor=none;align=left;verticalAlign=middle;spacingLeft=4;spacingRight=4;overflow=hidden;rotatable=0;points=[[0,0.5],[1,0.5]];portConstraint=eastwest;" vertex="1" parent="zFvDSEM8ExGS-bmuOnvd-1">
                    <mxGeometry y="100" width="320" height="20" as="geometry"/>
                </mxCell>
                <mxCell id="zFvDSEM8ExGS-bmuOnvd-7" value="+ getTiles(): Map&amp;lt;Coordinate, Tile&amp;gt;" style="text;html=1;strokeColor=none;fillColor=none;align=left;verticalAlign=middle;spacingLeft=4;spacingRight=4;overflow=hidden;rotatable=0;points=[[0,0.5],[1,0.5]];portConstraint=eastwest;" parent="zFvDSEM8ExGS-bmuOnvd-1" vertex="1">
                    <mxGeometry y="120" width="320" height="20" as="geometry"/>
                </mxCell>
                <mxCell id="zFvDSEM8ExGS-bmuOnvd-12" value="+ removeSelection(List&amp;lt;Coordinate&amp;gt;) : void" style="text;html=1;strokeColor=none;fillColor=none;align=left;verticalAlign=middle;spacingLeft=4;spacingRight=4;overflow=hidden;rotatable=0;points=[[0,0.5],[1,0.5]];portConstraint=eastwest;" parent="zFvDSEM8ExGS-bmuOnvd-1" vertex="1">
                    <mxGeometry y="140" width="320" height="20" as="geometry"/>
                </mxCell>
                <mxCell id="1yL_GHk3mwXWPiJm3IX2-62" value="+ insertTile(coordinate: Coordinate, tile: Tile) : void" style="text;html=1;strokeColor=none;fillColor=none;align=left;verticalAlign=middle;spacingLeft=4;spacingRight=4;overflow=hidden;rotatable=0;points=[[0,0.5],[1,0.5]];portConstraint=eastwest;" vertex="1" parent="zFvDSEM8ExGS-bmuOnvd-1">
                    <mxGeometry y="160" width="320" height="20" as="geometry"/>
                </mxCell>
                <mxCell id="AQLxxF_Y7uBlIm2RAM6H-17" style="edgeStyle=orthogonalEdgeStyle;shape=connector;rounded=0;html=1;exitX=1;exitY=0.5;exitDx=0;exitDy=0;labelBackgroundColor=default;strokeColor=default;fontFamily=Helvetica;fontSize=11;fontColor=default;endArrow=open;entryX=0;entryY=0.5;entryDx=0;entryDy=0;endFill=0;startSize=10;endSize=10;" parent="reXhHC1dDX01Fzy9teYw-31" source="zFvDSEM8ExGS-bmuOnvd-3" target="EItBFqwYidHV2KRVBO9W-6" edge="1">
                    <mxGeometry relative="1" as="geometry">
                        <mxPoint x="1255" y="210" as="targetPoint"/>
                        <Array as="points">
                            <mxPoint x="1125" y="448"/>
                        </Array>
                    </mxGeometry>
                </mxCell>
                <mxCell id="1yL_GHk3mwXWPiJm3IX2-67" style="edgeStyle=orthogonalEdgeStyle;shape=connector;rounded=0;html=1;exitX=0.5;exitY=0;exitDx=0;exitDy=0;labelBackgroundColor=default;strokeColor=default;fontFamily=Helvetica;fontSize=11;fontColor=default;startArrow=none;startFill=0;endArrow=none;endFill=0;startSize=10;endSize=10;entryX=0.377;entryY=1;entryDx=0;entryDy=0;entryPerimeter=0;" edge="1" parent="reXhHC1dDX01Fzy9teYw-31" target="CzzCCSxg7rUskWxk_mFD-11">
                    <mxGeometry relative="1" as="geometry">
                        <mxPoint x="1007" y="1090" as="targetPoint"/>
                        <Array as="points">
                            <mxPoint x="1005" y="1320"/>
                            <mxPoint x="1008" y="1320"/>
                        </Array>
                        <mxPoint x="1005" y="1312.75" as="sourcePoint"/>
                    </mxGeometry>
                </mxCell>
                <mxCell id="CzzCCSxg7rUskWxk_mFD-1" value="&lt;b&gt;Player&lt;/b&gt;" style="swimlane;fontStyle=0;align=center;verticalAlign=top;childLayout=stackLayout;horizontal=1;startSize=30;horizontalStack=0;resizeParent=1;resizeParentMax=0;resizeLast=0;collapsible=0;marginBottom=0;html=1;" parent="reXhHC1dDX01Fzy9teYw-31" vertex="1">
                    <mxGeometry x="925" y="680" width="220" height="238" as="geometry"/>
                </mxCell>
                <mxCell id="CzzCCSxg7rUskWxk_mFD-2" value="attributes" style="text;html=1;strokeColor=none;fillColor=none;align=center;verticalAlign=middle;spacingLeft=4;spacingRight=4;overflow=hidden;rotatable=0;points=[[0,0.5],[1,0.5]];portConstraint=eastwest;" parent="CzzCCSxg7rUskWxk_mFD-1" vertex="1">
                    <mxGeometry y="30" width="220" height="20" as="geometry"/>
                </mxCell>
                <mxCell id="CzzCCSxg7rUskWxk_mFD-3" value="- nickname : String" style="text;html=1;strokeColor=none;fillColor=none;align=left;verticalAlign=middle;spacingLeft=4;spacingRight=4;overflow=hidden;rotatable=0;points=[[0,0.5],[1,0.5]];portConstraint=eastwest;" parent="CzzCCSxg7rUskWxk_mFD-1" vertex="1">
                    <mxGeometry y="50" width="220" height="20" as="geometry"/>
                </mxCell>
                <mxCell id="11" value="- score : int" style="text;html=1;strokeColor=none;fillColor=none;align=left;verticalAlign=middle;spacingLeft=4;spacingRight=4;overflow=hidden;rotatable=0;points=[[0,0.5],[1,0.5]];portConstraint=eastwest;" parent="CzzCCSxg7rUskWxk_mFD-1" vertex="1">
                    <mxGeometry y="70" width="220" height="20" as="geometry"/>
                </mxCell>
                <mxCell id="1yL_GHk3mwXWPiJm3IX2-66" value="- pgId: int" style="text;html=1;strokeColor=none;fillColor=none;align=left;verticalAlign=middle;spacingLeft=4;spacingRight=4;overflow=hidden;rotatable=0;points=[[0,0.5],[1,0.5]];portConstraint=eastwest;" vertex="1" parent="CzzCCSxg7rUskWxk_mFD-1">
                    <mxGeometry y="90" width="220" height="20" as="geometry"/>
                </mxCell>
                <mxCell id="CzzCCSxg7rUskWxk_mFD-5" value="" style="line;strokeWidth=1;fillColor=none;align=left;verticalAlign=middle;spacingTop=-1;spacingLeft=3;spacingRight=3;rotatable=0;labelPosition=right;points=[];portConstraint=eastwest;" parent="CzzCCSxg7rUskWxk_mFD-1" vertex="1">
                    <mxGeometry y="110" width="220" height="8" as="geometry"/>
                </mxCell>
                <mxCell id="CzzCCSxg7rUskWxk_mFD-6" value="operations" style="text;html=1;strokeColor=none;fillColor=none;align=center;verticalAlign=middle;spacingLeft=4;spacingRight=4;overflow=hidden;rotatable=0;points=[[0,0.5],[1,0.5]];portConstraint=eastwest;" parent="CzzCCSxg7rUskWxk_mFD-1" vertex="1">
                    <mxGeometry y="118" width="220" height="20" as="geometry"/>
                </mxCell>
                <mxCell id="CzzCCSxg7rUskWxk_mFD-7" value="+ getNickname() : String" style="text;html=1;strokeColor=none;fillColor=none;align=left;verticalAlign=middle;spacingLeft=4;spacingRight=4;overflow=hidden;rotatable=0;points=[[0,0.5],[1,0.5]];portConstraint=eastwest;" parent="CzzCCSxg7rUskWxk_mFD-1" vertex="1">
                    <mxGeometry y="138" width="220" height="20" as="geometry"/>
                </mxCell>
                <mxCell id="CzzCCSxg7rUskWxk_mFD-8" value="+ getScore() : int" style="text;html=1;strokeColor=none;fillColor=none;align=left;verticalAlign=middle;spacingLeft=4;spacingRight=4;overflow=hidden;rotatable=0;points=[[0,0.5],[1,0.5]];portConstraint=eastwest;" parent="CzzCCSxg7rUskWxk_mFD-1" vertex="1">
                    <mxGeometry y="158" width="220" height="20" as="geometry"/>
                </mxCell>
                <mxCell id="CzzCCSxg7rUskWxk_mFD-9" value="+ getShelf() : Shelf" style="text;html=1;strokeColor=none;fillColor=none;align=left;verticalAlign=middle;spacingLeft=4;spacingRight=4;overflow=hidden;rotatable=0;points=[[0,0.5],[1,0.5]];portConstraint=eastwest;" parent="CzzCCSxg7rUskWxk_mFD-1" vertex="1">
                    <mxGeometry y="178" width="220" height="20" as="geometry"/>
                </mxCell>
                <mxCell id="1yL_GHk3mwXWPiJm3IX2-69" value="+ getPg(): int" style="text;html=1;strokeColor=none;fillColor=none;align=left;verticalAlign=middle;spacingLeft=4;spacingRight=4;overflow=hidden;rotatable=0;points=[[0,0.5],[1,0.5]];portConstraint=eastwest;" vertex="1" parent="CzzCCSxg7rUskWxk_mFD-1">
                    <mxGeometry y="198" width="220" height="20" as="geometry"/>
                </mxCell>
                <mxCell id="CzzCCSxg7rUskWxk_mFD-11" value="+ addScore(int) : void" style="text;html=1;strokeColor=none;fillColor=none;align=left;verticalAlign=middle;spacingLeft=4;spacingRight=4;overflow=hidden;rotatable=0;points=[[0,0.5],[1,0.5]];portConstraint=eastwest;" parent="CzzCCSxg7rUskWxk_mFD-1" vertex="1">
                    <mxGeometry y="218" width="220" height="20" as="geometry"/>
                </mxCell>
                <mxCell id="_JzwbQi-9FWT9-2Lk78u-1" value="&lt;b&gt;Shelf&lt;/b&gt;" style="swimlane;fontStyle=0;align=center;verticalAlign=top;childLayout=stackLayout;horizontal=1;startSize=30;horizontalStack=0;resizeParent=1;resizeParentMax=0;resizeLast=0;collapsible=0;marginBottom=0;html=1;" parent="reXhHC1dDX01Fzy9teYw-31" vertex="1">
                    <mxGeometry x="1405" y="680" width="320" height="248" as="geometry"/>
                </mxCell>
                <mxCell id="_JzwbQi-9FWT9-2Lk78u-2" value="attributes" style="text;html=1;strokeColor=none;fillColor=none;align=center;verticalAlign=middle;spacingLeft=4;spacingRight=4;overflow=hidden;rotatable=0;points=[[0,0.5],[1,0.5]];portConstraint=eastwest;" parent="_JzwbQi-9FWT9-2Lk78u-1" vertex="1">
                    <mxGeometry y="30" width="320" height="20" as="geometry"/>
                </mxCell>
                <mxCell id="_JzwbQi-9FWT9-2Lk78u-3" value="- contents : Tile[][]&amp;nbsp;" style="text;html=1;strokeColor=none;fillColor=none;align=left;verticalAlign=middle;spacingLeft=4;spacingRight=4;overflow=hidden;rotatable=0;points=[[0,0.5],[1,0.5]];portConstraint=eastwest;" parent="_JzwbQi-9FWT9-2Lk78u-1" vertex="1">
                    <mxGeometry y="50" width="320" height="20" as="geometry"/>
                </mxCell>
                <mxCell id="_JzwbQi-9FWT9-2Lk78u-4" value="- N_ROW:&amp;nbsp; int" style="text;html=1;strokeColor=none;fillColor=none;align=left;verticalAlign=middle;spacingLeft=4;spacingRight=4;overflow=hidden;rotatable=0;points=[[0,0.5],[1,0.5]];portConstraint=eastwest;" parent="_JzwbQi-9FWT9-2Lk78u-1" vertex="1">
                    <mxGeometry y="70" width="320" height="20" as="geometry"/>
                </mxCell>
                <mxCell id="_JzwbQi-9FWT9-2Lk78u-5" value="&amp;nbsp;- N_COL : int" style="text;html=1;align=left;verticalAlign=middle;resizable=1;points=[];autosize=1;strokeColor=none;fillColor=none;movable=1;rotatable=1;deletable=1;editable=1;connectable=1;" parent="_JzwbQi-9FWT9-2Lk78u-1" vertex="1">
                    <mxGeometry y="90" width="320" height="30" as="geometry"/>
                </mxCell>
                <mxCell id="_JzwbQi-9FWT9-2Lk78u-6" value="" style="line;strokeWidth=1;fillColor=none;align=left;verticalAlign=middle;spacingTop=-1;spacingLeft=3;spacingRight=3;rotatable=0;labelPosition=right;points=[];portConstraint=eastwest;" parent="_JzwbQi-9FWT9-2Lk78u-1" vertex="1">
                    <mxGeometry y="120" width="320" height="8" as="geometry"/>
                </mxCell>
                <mxCell id="_JzwbQi-9FWT9-2Lk78u-7" value="operations" style="text;html=1;strokeColor=none;fillColor=none;align=center;verticalAlign=middle;spacingLeft=4;spacingRight=4;overflow=hidden;rotatable=0;points=[[0,0.5],[1,0.5]];portConstraint=eastwest;" parent="_JzwbQi-9FWT9-2Lk78u-1" vertex="1">
                    <mxGeometry y="128" width="320" height="20" as="geometry"/>
                </mxCell>
                <mxCell id="_JzwbQi-9FWT9-2Lk78u-8" value="+ getTile(row: int, col: int) :&amp;nbsp; Tile" style="text;html=1;strokeColor=none;fillColor=none;align=left;verticalAlign=middle;spacingLeft=4;spacingRight=4;overflow=hidden;rotatable=0;points=[[0,0.5],[1,0.5]];portConstraint=eastwest;" parent="_JzwbQi-9FWT9-2Lk78u-1" vertex="1">
                    <mxGeometry y="148" width="320" height="20" as="geometry"/>
                </mxCell>
                <mxCell id="_JzwbQi-9FWT9-2Lk78u-9" value="+ isFull() : boolean" style="text;html=1;strokeColor=none;fillColor=none;align=left;verticalAlign=middle;spacingLeft=4;spacingRight=4;overflow=hidden;rotatable=0;points=[[0,0.5],[1,0.5]];portConstraint=eastwest;" parent="_JzwbQi-9FWT9-2Lk78u-1" vertex="1">
                    <mxGeometry y="168" width="320" height="20" as="geometry"/>
                </mxCell>
                <mxCell id="_JzwbQi-9FWT9-2Lk78u-11" value="+ availableColumns(selection_length: int): List&amp;lt;Integer&amp;gt;" style="text;html=1;strokeColor=none;fillColor=none;align=left;verticalAlign=middle;spacingLeft=4;spacingRight=4;overflow=hidden;rotatable=0;points=[[0,0.5],[1,0.5]];portConstraint=eastwest;" parent="_JzwbQi-9FWT9-2Lk78u-1" vertex="1">
                    <mxGeometry y="188" width="320" height="20" as="geometry"/>
                </mxCell>
                <mxCell id="1yL_GHk3mwXWPiJm3IX2-60" value="+ spaceInColumn(column: int) : int" style="text;html=1;strokeColor=none;fillColor=none;align=left;verticalAlign=middle;spacingLeft=4;spacingRight=4;overflow=hidden;rotatable=0;points=[[0,0.5],[1,0.5]];portConstraint=eastwest;" vertex="1" parent="_JzwbQi-9FWT9-2Lk78u-1">
                    <mxGeometry y="208" width="320" height="20" as="geometry"/>
                </mxCell>
                <mxCell id="_JzwbQi-9FWT9-2Lk78u-12" value="+ addTiles(tiles: List&amp;lt;Tiles&amp;gt;, col: int&amp;gt; : void" style="text;html=1;strokeColor=none;fillColor=none;align=left;verticalAlign=middle;spacingLeft=4;spacingRight=4;overflow=hidden;rotatable=0;points=[[0,0.5],[1,0.5]];portConstraint=eastwest;" parent="_JzwbQi-9FWT9-2Lk78u-1" vertex="1">
                    <mxGeometry y="228" width="320" height="20" as="geometry"/>
                </mxCell>
                <mxCell id="AQLxxF_Y7uBlIm2RAM6H-13" style="shape=connector;rounded=0;html=1;exitX=1;exitY=0.5;exitDx=0;exitDy=0;labelBackgroundColor=default;strokeColor=default;fontFamily=Helvetica;fontSize=11;fontColor=default;endArrow=none;startArrow=diamondThin;startFill=0;endFill=0;startSize=30;" parent="reXhHC1dDX01Fzy9teYw-31" source="CzzCCSxg7rUskWxk_mFD-6" target="_JzwbQi-9FWT9-2Lk78u-6" edge="1">
                    <mxGeometry relative="1" as="geometry"/>
                </mxCell>
                <mxCell id="reXhHC1dDX01Fzy9teYw-11" value="&lt;b&gt;TileBag&lt;/b&gt;" style="swimlane;fontStyle=0;align=center;verticalAlign=top;childLayout=stackLayout;horizontal=1;startSize=30;horizontalStack=0;resizeParent=1;resizeParentMax=0;resizeLast=0;collapsible=0;marginBottom=0;html=1;" parent="reXhHC1dDX01Fzy9teYw-31" vertex="1">
                    <mxGeometry x="505" y="280" width="250" height="138" as="geometry"/>
                </mxCell>
                <mxCell id="reXhHC1dDX01Fzy9teYw-12" value="attributes" style="text;html=1;strokeColor=none;fillColor=none;align=center;verticalAlign=middle;spacingLeft=4;spacingRight=4;overflow=hidden;rotatable=0;points=[[0,0.5],[1,0.5]];portConstraint=eastwest;" parent="reXhHC1dDX01Fzy9teYw-11" vertex="1">
                    <mxGeometry y="30" width="250" height="20" as="geometry"/>
                </mxCell>
                <mxCell id="reXhHC1dDX01Fzy9teYw-13" value="- bag: Map&amp;lt;Tile, Integer&amp;gt;" style="text;html=1;strokeColor=none;fillColor=none;align=left;verticalAlign=middle;spacingLeft=4;spacingRight=4;overflow=hidden;rotatable=0;points=[[0,0.5],[1,0.5]];portConstraint=eastwest;" parent="reXhHC1dDX01Fzy9teYw-11" vertex="1">
                    <mxGeometry y="50" width="250" height="20" as="geometry"/>
                </mxCell>
                <mxCell id="reXhHC1dDX01Fzy9teYw-14" value="" style="line;strokeWidth=1;fillColor=none;align=left;verticalAlign=middle;spacingTop=-1;spacingLeft=3;spacingRight=3;rotatable=0;labelPosition=right;points=[];portConstraint=eastwest;" parent="reXhHC1dDX01Fzy9teYw-11" vertex="1">
                    <mxGeometry y="70" width="250" height="8" as="geometry"/>
                </mxCell>
                <mxCell id="reXhHC1dDX01Fzy9teYw-15" value="operations" style="text;html=1;strokeColor=none;fillColor=none;align=center;verticalAlign=middle;spacingLeft=4;spacingRight=4;overflow=hidden;rotatable=0;points=[[0,0.5],[1,0.5]];portConstraint=eastwest;" parent="reXhHC1dDX01Fzy9teYw-11" vertex="1">
                    <mxGeometry y="78" width="250" height="20" as="geometry"/>
                </mxCell>
                <mxCell id="reXhHC1dDX01Fzy9teYw-17" value="+ getTileAmount(tile: Tile) : int" style="text;html=1;strokeColor=none;fillColor=none;align=left;verticalAlign=middle;spacingLeft=4;spacingRight=4;overflow=hidden;rotatable=0;points=[[0,0.5],[1,0.5]];portConstraint=eastwest;" parent="reXhHC1dDX01Fzy9teYw-11" vertex="1">
                    <mxGeometry y="98" width="250" height="20" as="geometry"/>
                </mxCell>
                <mxCell id="1yL_GHk3mwXWPiJm3IX2-74" value="+ removeSelection(tiles: List&amp;lt;Tile&amp;gt;): void" style="text;html=1;strokeColor=none;fillColor=none;align=left;verticalAlign=middle;spacingLeft=4;spacingRight=4;overflow=hidden;rotatable=0;points=[[0,0.5],[1,0.5]];portConstraint=eastwest;" vertex="1" parent="reXhHC1dDX01Fzy9teYw-11">
                    <mxGeometry y="118" width="250" height="20" as="geometry"/>
                </mxCell>
                <mxCell id="muhHsS42p1R9zGPNstKS-4" value="&lt;b&gt;GameModel&lt;br&gt;&lt;/b&gt;" style="swimlane;fontStyle=0;align=center;verticalAlign=top;childLayout=stackLayout;horizontal=1;startSize=30;horizontalStack=0;resizeParent=1;resizeParentMax=0;resizeLast=0;collapsible=0;marginBottom=0;html=1;" parent="reXhHC1dDX01Fzy9teYw-31" vertex="1">
                    <mxGeometry x="440" y="578" width="335" height="558" as="geometry"/>
                </mxCell>
                <mxCell id="muhHsS42p1R9zGPNstKS-5" value="attributes" style="text;html=1;strokeColor=none;fillColor=none;align=center;verticalAlign=middle;spacingLeft=4;spacingRight=4;overflow=hidden;rotatable=0;points=[[0,0.5],[1,0.5]];portConstraint=eastwest;" parent="muhHsS42p1R9zGPNstKS-4" vertex="1">
                    <mxGeometry y="30" width="335" height="20" as="geometry"/>
                </mxCell>
                <mxCell id="mUMRQwaqmbg41AbMavLn-2" value="- commonGoalStackX : Stack&amp;lt;int&amp;gt;" style="text;html=1;strokeColor=none;fillColor=none;align=left;verticalAlign=middle;spacingLeft=4;spacingRight=4;overflow=hidden;rotatable=0;points=[[0,0.5],[1,0.5]];portConstraint=eastwest;" parent="muhHsS42p1R9zGPNstKS-4" vertex="1">
                    <mxGeometry y="50" width="335" height="20" as="geometry"/>
                </mxCell>
                <mxCell id="mUMRQwaqmbg41AbMavLn-1" value="- commonGoalStackY : Stack&amp;lt;int&amp;gt;" style="text;html=1;strokeColor=none;fillColor=none;align=left;verticalAlign=middle;spacingLeft=4;spacingRight=4;overflow=hidden;rotatable=0;points=[[0,0.5],[1,0.5]];portConstraint=eastwest;" parent="muhHsS42p1R9zGPNstKS-4" vertex="1">
                    <mxGeometry y="70" width="335" height="20" as="geometry"/>
                </mxCell>
                <mxCell id="AQLxxF_Y7uBlIm2RAM6H-20" value="- commonGoalNumX : int" style="text;html=1;strokeColor=none;fillColor=none;align=left;verticalAlign=middle;spacingLeft=4;spacingRight=4;overflow=hidden;rotatable=0;points=[[0,0.5],[1,0.5]];portConstraint=eastwest;" parent="muhHsS42p1R9zGPNstKS-4" vertex="1">
                    <mxGeometry y="90" width="335" height="20" as="geometry"/>
                </mxCell>
                <mxCell id="muhHsS42p1R9zGPNstKS-6" value="- commonGoalNumY : int" style="text;html=1;strokeColor=none;fillColor=none;align=left;verticalAlign=middle;spacingLeft=4;spacingRight=4;overflow=hidden;rotatable=0;points=[[0,0.5],[1,0.5]];portConstraint=eastwest;" parent="muhHsS42p1R9zGPNstKS-4" vertex="1">
                    <mxGeometry y="110" width="335" height="20" as="geometry"/>
                </mxCell>
                <mxCell id="MkMES1sBLCopLFusQH_q-12" value="- currentPlayerIndex : int" style="text;html=1;strokeColor=none;fillColor=none;align=left;verticalAlign=middle;spacingLeft=4;spacingRight=4;overflow=hidden;rotatable=0;points=[[0,0.5],[1,0.5]];portConstraint=eastwest;" parent="muhHsS42p1R9zGPNstKS-4" vertex="1">
                    <mxGeometry y="130" width="335" height="20" as="geometry"/>
                </mxCell>
                <mxCell id="1yL_GHk3mwXWPiJm3IX2-76" value="- finalTurn: boolean" style="text;html=1;strokeColor=none;fillColor=none;align=left;verticalAlign=middle;spacingLeft=4;spacingRight=4;overflow=hidden;rotatable=0;points=[[0,0.5],[1,0.5]];portConstraint=eastwest;" vertex="1" parent="muhHsS42p1R9zGPNstKS-4">
                    <mxGeometry y="150" width="335" height="20" as="geometry"/>
                </mxCell>
                <mxCell id="muhHsS42p1R9zGPNstKS-9" value="" style="line;strokeWidth=1;fillColor=none;align=left;verticalAlign=middle;spacingTop=-1;spacingLeft=3;spacingRight=3;rotatable=0;labelPosition=right;points=[];portConstraint=eastwest;" parent="muhHsS42p1R9zGPNstKS-4" vertex="1">
                    <mxGeometry y="170" width="335" height="8" as="geometry"/>
                </mxCell>
                <mxCell id="muhHsS42p1R9zGPNstKS-10" value="operations" style="text;html=1;strokeColor=none;fillColor=none;align=center;verticalAlign=middle;spacingLeft=4;spacingRight=4;overflow=hidden;rotatable=0;points=[[0,0.5],[1,0.5]];portConstraint=eastwest;" parent="muhHsS42p1R9zGPNstKS-4" vertex="1">
                    <mxGeometry y="178" width="335" height="20" as="geometry"/>
                </mxCell>
                <mxCell id="2" value="+ getCommonGoalX() : int&amp;nbsp;" style="text;html=1;strokeColor=none;fillColor=none;align=left;verticalAlign=middle;spacingLeft=4;spacingRight=4;overflow=hidden;rotatable=0;points=[[0,0.5],[1,0.5]];portConstraint=eastwest;" parent="muhHsS42p1R9zGPNstKS-4" vertex="1">
                    <mxGeometry y="198" width="335" height="20" as="geometry"/>
                </mxCell>
                <mxCell id="AQLxxF_Y7uBlIm2RAM6H-25" value="+ popStackCGX() : int&amp;nbsp;" style="text;html=1;strokeColor=none;fillColor=none;align=left;verticalAlign=middle;spacingLeft=4;spacingRight=4;overflow=hidden;rotatable=0;points=[[0,0.5],[1,0.5]];portConstraint=eastwest;" parent="muhHsS42p1R9zGPNstKS-4" vertex="1">
                    <mxGeometry y="218" width="335" height="20" as="geometry"/>
                </mxCell>
                <mxCell id="4" value="+ getCommonGoalY() : int&amp;nbsp;" style="text;html=1;strokeColor=none;fillColor=none;align=left;verticalAlign=middle;spacingLeft=4;spacingRight=4;overflow=hidden;rotatable=0;points=[[0,0.5],[1,0.5]];portConstraint=eastwest;" parent="muhHsS42p1R9zGPNstKS-4" vertex="1">
                    <mxGeometry y="238" width="335" height="20" as="geometry"/>
                </mxCell>
                <mxCell id="AQLxxF_Y7uBlIm2RAM6H-24" value="+ popStackCGY() : int&amp;nbsp;" style="text;html=1;strokeColor=none;fillColor=none;align=left;verticalAlign=middle;spacingLeft=4;spacingRight=4;overflow=hidden;rotatable=0;points=[[0,0.5],[1,0.5]];portConstraint=eastwest;" parent="muhHsS42p1R9zGPNstKS-4" vertex="1">
                    <mxGeometry y="258" width="335" height="20" as="geometry"/>
                </mxCell>
                <mxCell id="1yL_GHk3mwXWPiJm3IX2-77" value="+ isFinalTurn(): boolean" style="text;html=1;strokeColor=none;fillColor=none;align=left;verticalAlign=middle;spacingLeft=4;spacingRight=4;overflow=hidden;rotatable=0;points=[[0,0.5],[1,0.5]];portConstraint=eastwest;" vertex="1" parent="muhHsS42p1R9zGPNstKS-4">
                    <mxGeometry y="278" width="335" height="20" as="geometry"/>
                </mxCell>
                <mxCell id="1yL_GHk3mwXWPiJm3IX2-64" value="+ addPlayer(nickname: String, pgId: int): void" style="text;html=1;strokeColor=none;fillColor=none;align=left;verticalAlign=middle;spacingLeft=4;spacingRight=4;overflow=hidden;rotatable=0;points=[[0,0.5],[1,0.5]];portConstraint=eastwest;" vertex="1" parent="muhHsS42p1R9zGPNstKS-4">
                    <mxGeometry y="298" width="335" height="20" as="geometry"/>
                </mxCell>
                <mxCell id="1yL_GHk3mwXWPiJm3IX2-59" value="+ getPlayers() : List&amp;lt;Player&amp;gt;" style="text;html=1;strokeColor=none;fillColor=none;align=left;verticalAlign=middle;spacingLeft=4;spacingRight=4;overflow=hidden;rotatable=0;points=[[0,0.5],[1,0.5]];portConstraint=eastwest;" vertex="1" parent="muhHsS42p1R9zGPNstKS-4">
                    <mxGeometry y="318" width="335" height="20" as="geometry"/>
                </mxCell>
                <mxCell id="MkMES1sBLCopLFusQH_q-14" value="+ getCurrentPlayer()&amp;nbsp; :&amp;nbsp; Player" style="text;html=1;strokeColor=none;fillColor=none;align=left;verticalAlign=middle;spacingLeft=4;spacingRight=4;overflow=hidden;rotatable=0;points=[[0,0.5],[1,0.5]];portConstraint=eastwest;" parent="muhHsS42p1R9zGPNstKS-4" vertex="1">
                    <mxGeometry y="338" width="335" height="20" as="geometry"/>
                </mxCell>
                <mxCell id="MkMES1sBLCopLFusQH_q-15" value="+ setCurrentPlayer(index: int) : void" style="text;html=1;strokeColor=none;fillColor=none;align=left;verticalAlign=middle;spacingLeft=4;spacingRight=4;overflow=hidden;rotatable=0;points=[[0,0.5],[1,0.5]];portConstraint=eastwest;" parent="muhHsS42p1R9zGPNstKS-4" vertex="1">
                    <mxGeometry y="358" width="335" height="20" as="geometry"/>
                </mxCell>
                <mxCell id="1yL_GHk3mwXWPiJm3IX2-73" value="+ getTile(coordinate: Coordinate): Tile" style="text;html=1;strokeColor=none;fillColor=none;align=left;verticalAlign=middle;spacingLeft=4;spacingRight=4;overflow=hidden;rotatable=0;points=[[0,0.5],[1,0.5]];portConstraint=eastwest;" vertex="1" parent="muhHsS42p1R9zGPNstKS-4">
                    <mxGeometry y="378" width="335" height="20" as="geometry"/>
                </mxCell>
                <mxCell id="1yL_GHk3mwXWPiJm3IX2-71" value="+ getAllCoordinates(): List&amp;lt;Coordinate&amp;gt;" style="text;html=1;strokeColor=none;fillColor=none;align=left;verticalAlign=middle;spacingLeft=4;spacingRight=4;overflow=hidden;rotatable=0;points=[[0,0.5],[1,0.5]];portConstraint=eastwest;" vertex="1" parent="muhHsS42p1R9zGPNstKS-4">
                    <mxGeometry y="398" width="335" height="20" as="geometry"/>
                </mxCell>
                <mxCell id="1yL_GHk3mwXWPiJm3IX2-50" value="+ getOccupiedCoordinates(): List&amp;lt;Coordinate&amp;gt;" style="text;html=1;strokeColor=none;fillColor=none;align=left;verticalAlign=middle;spacingLeft=4;spacingRight=4;overflow=hidden;rotatable=0;points=[[0,0.5],[1,0.5]];portConstraint=eastwest;" vertex="1" parent="muhHsS42p1R9zGPNstKS-4">
                    <mxGeometry y="418" width="335" height="20" as="geometry"/>
                </mxCell>
                <mxCell id="1yL_GHk3mwXWPiJm3IX2-55" value="+ insertTile(coordinate: Coordinate, tile: Tile) : void" style="text;html=1;strokeColor=none;fillColor=none;align=left;verticalAlign=middle;spacingLeft=4;spacingRight=4;overflow=hidden;rotatable=0;points=[[0,0.5],[1,0.5]];portConstraint=eastwest;" vertex="1" parent="muhHsS42p1R9zGPNstKS-4">
                    <mxGeometry y="438" width="335" height="20" as="geometry"/>
                </mxCell>
                <mxCell id="1yL_GHk3mwXWPiJm3IX2-51" value="+ shelveSelection(tiles: List&amp;lt;Coordinate&amp;gt;, column: int) : void" style="text;html=1;strokeColor=none;fillColor=none;align=left;verticalAlign=middle;spacingLeft=4;spacingRight=4;overflow=hidden;rotatable=0;points=[[0,0.5],[1,0.5]];portConstraint=eastwest;" vertex="1" parent="muhHsS42p1R9zGPNstKS-4">
                    <mxGeometry y="458" width="335" height="20" as="geometry"/>
                </mxCell>
                <mxCell id="1yL_GHk3mwXWPiJm3IX2-56" value="+ addCurrentPlayerScore(score: int) : void" style="text;html=1;strokeColor=none;fillColor=none;align=left;verticalAlign=middle;spacingLeft=4;spacingRight=4;overflow=hidden;rotatable=0;points=[[0,0.5],[1,0.5]];portConstraint=eastwest;" vertex="1" parent="muhHsS42p1R9zGPNstKS-4">
                    <mxGeometry y="478" width="335" height="20" as="geometry"/>
                </mxCell>
                <mxCell id="1yL_GHk3mwXWPiJm3IX2-54" value="+ getTileAmount(tile: Tile) : int" style="text;html=1;strokeColor=none;fillColor=none;align=left;verticalAlign=middle;spacingLeft=4;spacingRight=4;overflow=hidden;rotatable=0;points=[[0,0.5],[1,0.5]];portConstraint=eastwest;" vertex="1" parent="muhHsS42p1R9zGPNstKS-4">
                    <mxGeometry y="498" width="335" height="20" as="geometry"/>
                </mxCell>
                <mxCell id="48" value="+ subscribe&amp;lt;T&amp;gt; (observer : T) : void" style="text;html=1;strokeColor=none;fillColor=none;align=left;verticalAlign=middle;spacingLeft=4;spacingRight=4;overflow=hidden;rotatable=0;points=[[0,0.5],[1,0.5]];portConstraint=eastwest;" parent="muhHsS42p1R9zGPNstKS-4" vertex="1">
                    <mxGeometry y="518" width="335" height="20" as="geometry"/>
                </mxCell>
                <mxCell id="49" value="+ notifyAllObs() : void" style="text;html=1;strokeColor=none;fillColor=none;align=left;verticalAlign=middle;spacingLeft=4;spacingRight=4;overflow=hidden;rotatable=0;points=[[0,0.5],[1,0.5]];portConstraint=eastwest;" parent="muhHsS42p1R9zGPNstKS-4" vertex="1">
                    <mxGeometry y="538" width="335" height="20" as="geometry"/>
                </mxCell>
                <mxCell id="AQLxxF_Y7uBlIm2RAM6H-12" style="edgeStyle=orthogonalEdgeStyle;shape=connector;rounded=0;html=1;exitX=1;exitY=0.5;exitDx=0;exitDy=0;labelBackgroundColor=default;strokeColor=default;fontFamily=Helvetica;fontSize=11;fontColor=default;endArrow=none;endFill=0;startArrow=diamondThin;startFill=0;startSize=30;" parent="reXhHC1dDX01Fzy9teYw-31" source="muhHsS42p1R9zGPNstKS-10" edge="1">
                    <mxGeometry relative="1" as="geometry">
                        <mxPoint x="925" y="766" as="targetPoint"/>
                        <Array as="points">
                            <mxPoint x="835" y="766"/>
                            <mxPoint x="835" y="766"/>
                        </Array>
                    </mxGeometry>
                </mxCell>
                <mxCell id="AQLxxF_Y7uBlIm2RAM6H-10" style="edgeStyle=orthogonalEdgeStyle;html=1;exitX=1;exitY=0.25;exitDx=0;exitDy=0;entryX=0.25;entryY=1;entryDx=0;entryDy=0;rounded=0;startArrow=diamondThin;startFill=0;startSize=30;endArrow=none;endFill=0;" parent="reXhHC1dDX01Fzy9teYw-31" source="muhHsS42p1R9zGPNstKS-4" target="zFvDSEM8ExGS-bmuOnvd-1" edge="1">
                    <mxGeometry relative="1" as="geometry"/>
                </mxCell>
                <mxCell id="reXhHC1dDX01Fzy9teYw-19" style="html=1;startSize=30;startArrow=diamondThin;startFill=0;endArrow=none;endFill=0;rounded=0;exitX=0.563;exitY=0.004;exitDx=0;exitDy=0;exitPerimeter=0;" parent="reXhHC1dDX01Fzy9teYw-31" source="muhHsS42p1R9zGPNstKS-4" edge="1">
                    <mxGeometry relative="1" as="geometry">
                        <mxPoint x="644" y="540" as="sourcePoint"/>
                        <mxPoint x="629" y="420" as="targetPoint"/>
                    </mxGeometry>
                </mxCell>
                <mxCell id="reXhHC1dDX01Fzy9teYw-27" value="The GameModel is the gateway between the inner component of the module and the external. The interface is bound to change in the future to better integrate an Observer/Observable pattern&amp;nbsp;" style="shape=note2;boundedLbl=1;whiteSpace=wrap;html=1;size=25;verticalAlign=top;align=center;" parent="reXhHC1dDX01Fzy9teYw-31" vertex="1">
                    <mxGeometry x="805" y="1030" width="170" height="140" as="geometry"/>
                </mxCell>
                <mxCell id="1yL_GHk3mwXWPiJm3IX2-72" style="edgeStyle=orthogonalEdgeStyle;rounded=0;html=1;startArrow=none;startFill=0;endArrow=none;endFill=0;startSize=30;endSize=10;targetPerimeterSpacing=0;" edge="1" parent="reXhHC1dDX01Fzy9teYw-31">
                    <mxGeometry relative="1" as="geometry">
                        <mxPoint x="775" y="980" as="targetPoint"/>
                        <Array as="points">
                            <mxPoint x="915" y="980"/>
                            <mxPoint x="775" y="980"/>
                        </Array>
                        <mxPoint x="915" y="1030" as="sourcePoint"/>
                    </mxGeometry>
                </mxCell>
                <mxCell id="AQLxxF_Y7uBlIm2RAM6H-19" style="edgeStyle=orthogonalEdgeStyle;shape=connector;rounded=0;html=1;exitX=0.75;exitY=0;exitDx=0;exitDy=0;entryX=0;entryY=0.25;entryDx=0;entryDy=0;labelBackgroundColor=default;strokeColor=default;fontFamily=Helvetica;fontSize=11;fontColor=default;endArrow=open;endFill=0;endSize=10;" parent="1" source="zFvDSEM8ExGS-bmuOnvd-1" target="A1pRyGmYKHws_5BumvxA-1" edge="1">
                    <mxGeometry relative="1" as="geometry"/>
                </mxCell>
                <mxCell id="Zb2L4xaHFMzhr6q-Kh5T-3" style="shape=connector;rounded=0;html=1;entryX=0.849;entryY=1.039;entryDx=0;entryDy=0;labelBackgroundColor=default;strokeColor=default;fontFamily=Helvetica;fontSize=11;fontColor=default;startArrow=none;startFill=0;endArrow=open;endFill=0;startSize=10;endSize=10;entryPerimeter=0;" parent="1" target="A1pRyGmYKHws_5BumvxA-8" edge="1">
                    <mxGeometry relative="1" as="geometry">
                        <mxPoint x="1189" y="230" as="sourcePoint"/>
                    </mxGeometry>
                </mxCell>
                <mxCell id="A1pRyGmYKHws_5BumvxA-1" value="&amp;lt;&amp;lt;enumeration&amp;gt;&amp;gt;&lt;br&gt;&lt;b&gt;Tile&lt;/b&gt;" style="swimlane;fontStyle=0;align=center;verticalAlign=top;childLayout=stackLayout;horizontal=1;startSize=40;horizontalStack=0;resizeParent=1;resizeParentMax=0;resizeLast=0;collapsible=0;marginBottom=0;html=1;movable=1;resizable=1;rotatable=1;deletable=1;editable=1;connectable=1;" parent="1" vertex="1">
                    <mxGeometry x="1070" y="-220" width="140" height="180" as="geometry"/>
                </mxCell>
                <mxCell id="A1pRyGmYKHws_5BumvxA-2" value="CATS" style="text;html=1;strokeColor=none;fillColor=none;align=left;verticalAlign=middle;spacingLeft=4;spacingRight=4;overflow=hidden;rotatable=0;points=[[0,0.5],[1,0.5]];portConstraint=eastwest;" parent="A1pRyGmYKHws_5BumvxA-1" vertex="1">
                    <mxGeometry y="40" width="140" height="20" as="geometry"/>
                </mxCell>
                <mxCell id="A1pRyGmYKHws_5BumvxA-3" value="BOOKS" style="text;html=1;strokeColor=none;fillColor=none;align=left;verticalAlign=middle;spacingLeft=4;spacingRight=4;overflow=hidden;rotatable=0;points=[[0,0.5],[1,0.5]];portConstraint=eastwest;" parent="A1pRyGmYKHws_5BumvxA-1" vertex="1">
                    <mxGeometry y="60" width="140" height="20" as="geometry"/>
                </mxCell>
                <mxCell id="A1pRyGmYKHws_5BumvxA-4" value="GAMES" style="text;html=1;strokeColor=none;fillColor=none;align=left;verticalAlign=middle;spacingLeft=4;spacingRight=4;overflow=hidden;rotatable=0;points=[[0,0.5],[1,0.5]];portConstraint=eastwest;" parent="A1pRyGmYKHws_5BumvxA-1" vertex="1">
                    <mxGeometry y="80" width="140" height="20" as="geometry"/>
                </mxCell>
                <mxCell id="A1pRyGmYKHws_5BumvxA-5" value="FRAMES" style="text;html=1;strokeColor=none;fillColor=none;align=left;verticalAlign=middle;spacingLeft=4;spacingRight=4;overflow=hidden;rotatable=0;points=[[0,0.5],[1,0.5]];portConstraint=eastwest;" parent="A1pRyGmYKHws_5BumvxA-1" vertex="1">
                    <mxGeometry y="100" width="140" height="20" as="geometry"/>
                </mxCell>
                <mxCell id="A1pRyGmYKHws_5BumvxA-6" value="TROPHIES" style="text;html=1;strokeColor=none;fillColor=none;align=left;verticalAlign=middle;spacingLeft=4;spacingRight=4;overflow=hidden;rotatable=0;points=[[0,0.5],[1,0.5]];portConstraint=eastwest;" parent="A1pRyGmYKHws_5BumvxA-1" vertex="1">
                    <mxGeometry y="120" width="140" height="20" as="geometry"/>
                </mxCell>
                <mxCell id="A1pRyGmYKHws_5BumvxA-7" value="PLANTS" style="text;html=1;strokeColor=none;fillColor=none;align=left;verticalAlign=middle;spacingLeft=4;spacingRight=4;overflow=hidden;rotatable=0;points=[[0,0.5],[1,0.5]];portConstraint=eastwest;" parent="A1pRyGmYKHws_5BumvxA-1" vertex="1">
                    <mxGeometry y="140" width="140" height="20" as="geometry"/>
                </mxCell>
                <mxCell id="A1pRyGmYKHws_5BumvxA-8" value="NOTILE" style="text;html=1;strokeColor=none;fillColor=none;align=left;verticalAlign=middle;spacingLeft=4;spacingRight=4;overflow=hidden;rotatable=0;points=[[0,0.5],[1,0.5]];portConstraint=eastwest;" parent="A1pRyGmYKHws_5BumvxA-1" vertex="1">
                    <mxGeometry y="160" width="140" height="20" as="geometry"/>
                </mxCell>
                <mxCell id="kDR1THSuE0NtLIlIffjt-2" style="edgeStyle=orthogonalEdgeStyle;html=1;exitX=0.852;exitY=-0.015;exitDx=0;exitDy=0;entryX=0.534;entryY=1.1;entryDx=0;entryDy=0;entryPerimeter=0;endArrow=open;endFill=0;endSize=10;rounded=0;exitPerimeter=0;" parent="1" source="AQLxxF_Y7uBlIm2RAM6H-1" target="EItBFqwYidHV2KRVBO9W-12" edge="1">
                    <mxGeometry relative="1" as="geometry">
                        <Array as="points">
                            <mxPoint x="670" y="710"/>
                            <mxPoint x="907" y="710"/>
                        </Array>
                    </mxGeometry>
                </mxCell>
                <mxCell id="kDR1THSuE0NtLIlIffjt-3" style="edgeStyle=orthogonalEdgeStyle;html=1;exitX=1;exitY=0.5;exitDx=0;exitDy=0;entryX=0.189;entryY=1.074;entryDx=0;entryDy=0;entryPerimeter=0;startArrow=none;startFill=0;endArrow=open;endFill=0;startSize=30;endSize=10;rounded=0;" parent="1" source="AQLxxF_Y7uBlIm2RAM6H-3" target="A1pRyGmYKHws_5BumvxA-8" edge="1">
                    <mxGeometry relative="1" as="geometry">
                        <Array as="points">
                            <mxPoint x="710" y="930"/>
                            <mxPoint x="940" y="930"/>
                            <mxPoint x="940" y="190"/>
                            <mxPoint x="1097" y="190"/>
                        </Array>
                    </mxGeometry>
                </mxCell>
                <mxCell id="AQLxxF_Y7uBlIm2RAM6H-1" value="&lt;b&gt;PersonalGoal&lt;/b&gt;" style="swimlane;fontStyle=0;align=center;verticalAlign=top;childLayout=stackLayout;horizontal=1;startSize=29;horizontalStack=0;resizeParent=1;resizeParentMax=0;resizeLast=0;collapsible=0;marginBottom=0;html=1;" parent="1" vertex="1">
                    <mxGeometry x="440" y="870" width="270" height="137" as="geometry"/>
                </mxCell>
                <mxCell id="AQLxxF_Y7uBlIm2RAM6H-2" value="attributes" style="text;html=1;strokeColor=none;fillColor=none;align=center;verticalAlign=middle;spacingLeft=4;spacingRight=4;overflow=hidden;rotatable=0;points=[[0,0.5],[1,0.5]];portConstraint=eastwest;" parent="AQLxxF_Y7uBlIm2RAM6H-1" vertex="1">
                    <mxGeometry y="29" width="270" height="20" as="geometry"/>
                </mxCell>
                <mxCell id="AQLxxF_Y7uBlIm2RAM6H-3" value="- goal : Map&amp;lt;Coordinate, Tile&amp;gt;" style="text;html=1;strokeColor=none;fillColor=none;align=left;verticalAlign=middle;spacingLeft=4;spacingRight=4;overflow=hidden;rotatable=0;points=[[0,0.5],[1,0.5]];portConstraint=eastwest;" parent="AQLxxF_Y7uBlIm2RAM6H-1" vertex="1">
                    <mxGeometry y="49" width="270" height="20" as="geometry"/>
                </mxCell>
                <mxCell id="1yL_GHk3mwXWPiJm3IX2-68" value="- number: int" style="text;html=1;strokeColor=none;fillColor=none;align=left;verticalAlign=middle;spacingLeft=4;spacingRight=4;overflow=hidden;rotatable=0;points=[[0,0.5],[1,0.5]];portConstraint=eastwest;" vertex="1" parent="AQLxxF_Y7uBlIm2RAM6H-1">
                    <mxGeometry y="69" width="270" height="20" as="geometry"/>
                </mxCell>
                <mxCell id="AQLxxF_Y7uBlIm2RAM6H-6" value="" style="line;strokeWidth=1;fillColor=none;align=left;verticalAlign=middle;spacingTop=-1;spacingLeft=3;spacingRight=3;rotatable=0;labelPosition=right;points=[];portConstraint=eastwest;" parent="AQLxxF_Y7uBlIm2RAM6H-1" vertex="1">
                    <mxGeometry y="89" width="270" height="8" as="geometry"/>
                </mxCell>
                <mxCell id="Zb2L4xaHFMzhr6q-Kh5T-14" value="operation" style="text;html=1;strokeColor=none;fillColor=none;align=center;verticalAlign=middle;spacingLeft=4;spacingRight=4;overflow=hidden;rotatable=0;points=[[0,0.5],[1,0.5]];portConstraint=eastwest;" parent="AQLxxF_Y7uBlIm2RAM6H-1" vertex="1">
                    <mxGeometry y="97" width="270" height="20" as="geometry"/>
                </mxCell>
                <mxCell id="Zb2L4xaHFMzhr6q-Kh5T-15" value="+ checkGoal(shelf: Shelf) : int" style="text;html=1;strokeColor=none;fillColor=none;align=left;verticalAlign=middle;spacingLeft=4;spacingRight=4;overflow=hidden;rotatable=0;points=[[0,0.5],[1,0.5]];portConstraint=eastwest;" parent="AQLxxF_Y7uBlIm2RAM6H-1" vertex="1">
                    <mxGeometry y="117" width="270" height="20" as="geometry"/>
                </mxCell>
                <mxCell id="v_Z5h6ZbUcXQgfyre8mY-13" style="shape=connector;rounded=0;html=1;exitX=0.5;exitY=0;exitDx=0;exitDy=0;labelBackgroundColor=default;strokeColor=default;fontFamily=Helvetica;fontSize=11;fontColor=default;startArrow=none;startFill=0;endArrow=none;endFill=0;startSize=10;endSize=10;entryX=0.672;entryY=1.15;entryDx=0;entryDy=0;entryPerimeter=0;" parent="1" source="fdC4uzwdY3IlRcGeozqC-11" target="49" edge="1">
                    <mxGeometry relative="1" as="geometry">
                        <mxPoint x="239" y="670" as="targetPoint"/>
                    </mxGeometry>
                </mxCell>
                <mxCell id="fdC4uzwdY3IlRcGeozqC-11" value="&amp;lt;&amp;lt;interface&amp;gt;&amp;gt;&lt;br&gt;&lt;b&gt;CommonGoalStrategy&lt;/b&gt;" style="swimlane;fontStyle=0;align=center;verticalAlign=top;childLayout=stackLayout;horizontal=1;startSize=40;horizontalStack=0;resizeParent=1;resizeParentMax=0;resizeLast=0;collapsible=0;marginBottom=0;html=1;" parent="1" vertex="1">
                    <mxGeometry x="128.5" y="860.75" width="220" height="188" as="geometry"/>
                </mxCell>
                <mxCell id="fdC4uzwdY3IlRcGeozqC-12" value="attributes" style="text;html=1;strokeColor=none;fillColor=none;align=center;verticalAlign=middle;spacingLeft=4;spacingRight=4;overflow=hidden;rotatable=0;points=[[0,0.5],[1,0.5]];portConstraint=eastwest;" parent="fdC4uzwdY3IlRcGeozqC-11" vertex="1">
                    <mxGeometry y="40" width="220" height="20" as="geometry"/>
                </mxCell>
                <mxCell id="fdC4uzwdY3IlRcGeozqC-45" value="-description: String" style="text;html=1;strokeColor=none;fillColor=none;align=left;verticalAlign=middle;spacingLeft=4;spacingRight=4;overflow=hidden;rotatable=0;points=[[0,0.5],[1,0.5]];portConstraint=eastwest;" parent="fdC4uzwdY3IlRcGeozqC-11" vertex="1">
                    <mxGeometry y="60" width="220" height="20" as="geometry"/>
                </mxCell>
                <mxCell id="fdC4uzwdY3IlRcGeozqC-13" value="-number: int" style="text;html=1;strokeColor=none;fillColor=none;align=left;verticalAlign=middle;spacingLeft=4;spacingRight=4;overflow=hidden;rotatable=0;points=[[0,0.5],[1,0.5]];portConstraint=eastwest;" parent="fdC4uzwdY3IlRcGeozqC-11" vertex="1">
                    <mxGeometry y="80" width="220" height="20" as="geometry"/>
                </mxCell>
                <mxCell id="fdC4uzwdY3IlRcGeozqC-14" value="" style="line;strokeWidth=1;fillColor=none;align=left;verticalAlign=middle;spacingTop=-1;spacingLeft=3;spacingRight=3;rotatable=0;labelPosition=right;points=[];portConstraint=eastwest;" parent="fdC4uzwdY3IlRcGeozqC-11" vertex="1">
                    <mxGeometry y="100" width="220" height="8" as="geometry"/>
                </mxCell>
                <mxCell id="fdC4uzwdY3IlRcGeozqC-15" value="operations" style="text;html=1;strokeColor=none;fillColor=none;align=center;verticalAlign=middle;spacingLeft=4;spacingRight=4;overflow=hidden;rotatable=0;points=[[0,0.5],[1,0.5]];portConstraint=eastwest;" parent="fdC4uzwdY3IlRcGeozqC-11" vertex="1">
                    <mxGeometry y="108" width="220" height="20" as="geometry"/>
                </mxCell>
                <mxCell id="fdC4uzwdY3IlRcGeozqC-16" value="+ getDescription(): String" style="text;html=1;strokeColor=none;fillColor=none;align=left;verticalAlign=middle;spacingLeft=4;spacingRight=4;overflow=hidden;rotatable=0;points=[[0,0.5],[1,0.5]];portConstraint=eastwest;" parent="fdC4uzwdY3IlRcGeozqC-11" vertex="1">
                    <mxGeometry y="128" width="220" height="20" as="geometry"/>
                </mxCell>
                <mxCell id="reXhHC1dDX01Fzy9teYw-24" value="+ getNumber(): int" style="text;html=1;strokeColor=none;fillColor=none;align=left;verticalAlign=middle;spacingLeft=4;spacingRight=4;overflow=hidden;rotatable=0;points=[[0,0.5],[1,0.5]];portConstraint=eastwest;" parent="fdC4uzwdY3IlRcGeozqC-11" vertex="1">
                    <mxGeometry y="148" width="220" height="20" as="geometry"/>
                </mxCell>
                <mxCell id="fdC4uzwdY3IlRcGeozqC-46" value="+ checkGoal(shelf: Shelf): boolean" style="text;html=1;strokeColor=none;fillColor=none;align=left;verticalAlign=middle;spacingLeft=4;spacingRight=4;overflow=hidden;rotatable=0;points=[[0,0.5],[1,0.5]];portConstraint=eastwest;" parent="fdC4uzwdY3IlRcGeozqC-11" vertex="1">
                    <mxGeometry y="168" width="220" height="20" as="geometry"/>
                </mxCell>
                <mxCell id="fdC4uzwdY3IlRcGeozqC-19" value="&lt;br&gt;&lt;b&gt;TwoRowAllDiffGoal&lt;/b&gt;" style="swimlane;fontStyle=0;align=center;verticalAlign=top;childLayout=stackLayout;horizontal=1;startSize=55;horizontalStack=0;resizeParent=1;resizeParentMax=0;resizeLast=0;collapsible=0;marginBottom=0;html=1;" parent="1" vertex="1">
                    <mxGeometry x="298.5" y="1359.75" width="140" height="50" as="geometry"/>
                </mxCell>
                <mxCell id="fdC4uzwdY3IlRcGeozqC-21" value="&lt;b&gt;&lt;br&gt;TwoColAllDiffGoal&lt;/b&gt;" style="swimlane;fontStyle=0;align=center;verticalAlign=top;childLayout=stackLayout;horizontal=1;startSize=55;horizontalStack=0;resizeParent=1;resizeParentMax=0;resizeLast=0;collapsible=0;marginBottom=0;html=1;" parent="1" vertex="1">
                    <mxGeometry x="298.5" y="1289.75" width="140" height="51.5" as="geometry"/>
                </mxCell>
                <mxCell id="fdC4uzwdY3IlRcGeozqC-23" value="&lt;b&gt;&lt;br&gt;DiagonalGoal&lt;br&gt;&lt;br&gt;&lt;/b&gt;" style="swimlane;fontStyle=0;align=center;verticalAlign=top;childLayout=stackLayout;horizontal=1;startSize=55;horizontalStack=0;resizeParent=1;resizeParentMax=0;resizeLast=0;collapsible=0;marginBottom=0;html=1;" parent="1" vertex="1">
                    <mxGeometry x="298.5" y="1148.25" width="140" height="51.5" as="geometry"/>
                </mxCell>
                <mxCell id="fdC4uzwdY3IlRcGeozqC-25" value="&lt;br&gt;&lt;b&gt;FourRowM3TGoal&lt;/b&gt;" style="swimlane;fontStyle=0;align=center;verticalAlign=top;childLayout=stackLayout;horizontal=1;startSize=55;horizontalStack=0;resizeParent=1;resizeParentMax=0;resizeLast=0;collapsible=0;marginBottom=0;html=1;" parent="1" vertex="1">
                    <mxGeometry x="298.5" y="1219.75" width="140" height="48.5" as="geometry"/>
                </mxCell>
                <mxCell id="fdC4uzwdY3IlRcGeozqC-27" value="&lt;br&gt;&lt;b&gt;XShapeSameTypeGoal&lt;/b&gt;" style="swimlane;fontStyle=0;align=center;verticalAlign=top;childLayout=stackLayout;horizontal=1;startSize=55;horizontalStack=0;resizeParent=1;resizeParentMax=0;resizeLast=0;collapsible=0;marginBottom=0;html=1;" parent="1" vertex="1">
                    <mxGeometry x="298.5" y="1429.75" width="140" height="50" as="geometry"/>
                </mxCell>
                <mxCell id="fdC4uzwdY3IlRcGeozqC-28" value="&lt;b&gt;&lt;br&gt;TriangleMtrxGoal&lt;/b&gt;" style="swimlane;fontStyle=0;align=center;verticalAlign=top;childLayout=stackLayout;horizontal=1;startSize=55;horizontalStack=0;resizeParent=1;resizeParentMax=0;resizeLast=0;collapsible=0;marginBottom=0;html=1;" parent="1" vertex="1">
                    <mxGeometry x="298.5" y="1509.75" width="140" height="50" as="geometry"/>
                </mxCell>
                <mxCell id="Zb2L4xaHFMzhr6q-Kh5T-8" style="edgeStyle=orthogonalEdgeStyle;shape=connector;rounded=0;html=1;exitX=1;exitY=0.5;exitDx=0;exitDy=0;entryX=0;entryY=0.5;entryDx=0;entryDy=0;labelBackgroundColor=default;strokeColor=default;fontFamily=Helvetica;fontSize=11;fontColor=default;startArrow=none;startFill=0;endArrow=none;endFill=0;startSize=10;endSize=10;" parent="1" source="fdC4uzwdY3IlRcGeozqC-30" target="fdC4uzwdY3IlRcGeozqC-19" edge="1">
                    <mxGeometry relative="1" as="geometry"/>
                </mxCell>
                <mxCell id="fdC4uzwdY3IlRcGeozqC-30" value="&lt;br&gt;&lt;b&gt;TwoSqrSameTypeGoal&lt;/b&gt;" style="swimlane;fontStyle=0;align=center;verticalAlign=top;childLayout=stackLayout;horizontal=1;startSize=55;horizontalStack=0;resizeParent=1;resizeParentMax=0;resizeLast=0;collapsible=0;marginBottom=0;html=1;" parent="1" vertex="1">
                    <mxGeometry x="38.5" y="1359.75" width="140" height="50" as="geometry"/>
                </mxCell>
                <mxCell id="Zb2L4xaHFMzhr6q-Kh5T-9" style="edgeStyle=orthogonalEdgeStyle;shape=connector;rounded=0;html=1;exitX=1;exitY=0.5;exitDx=0;exitDy=0;entryX=0;entryY=0.5;entryDx=0;entryDy=0;labelBackgroundColor=default;strokeColor=default;fontFamily=Helvetica;fontSize=11;fontColor=default;startArrow=none;startFill=0;endArrow=none;endFill=0;startSize=10;endSize=10;" parent="1" source="fdC4uzwdY3IlRcGeozqC-32" target="fdC4uzwdY3IlRcGeozqC-21" edge="1">
                    <mxGeometry relative="1" as="geometry"/>
                </mxCell>
                <mxCell id="fdC4uzwdY3IlRcGeozqC-32" value="&lt;br&gt;&lt;b&gt;FourFourGoal&lt;/b&gt;" style="swimlane;fontStyle=0;align=center;verticalAlign=top;childLayout=stackLayout;horizontal=1;startSize=55;horizontalStack=0;resizeParent=1;resizeParentMax=0;resizeLast=0;collapsible=0;marginBottom=0;html=1;" parent="1" vertex="1">
                    <mxGeometry x="38.5" y="1289.75" width="140" height="51.5" as="geometry"/>
                </mxCell>
                <mxCell id="Zb2L4xaHFMzhr6q-Kh5T-11" style="edgeStyle=orthogonalEdgeStyle;shape=connector;rounded=0;html=1;exitX=1;exitY=0.5;exitDx=0;exitDy=0;entryX=0;entryY=0.5;entryDx=0;entryDy=0;labelBackgroundColor=default;strokeColor=default;fontFamily=Helvetica;fontSize=11;fontColor=default;startArrow=none;startFill=0;endArrow=none;endFill=0;startSize=10;endSize=10;" parent="1" source="fdC4uzwdY3IlRcGeozqC-34" target="fdC4uzwdY3IlRcGeozqC-23" edge="1">
                    <mxGeometry relative="1" as="geometry"/>
                </mxCell>
                <mxCell id="fdC4uzwdY3IlRcGeozqC-34" value="&lt;b&gt;&lt;br&gt;SixTwoGoal&lt;/b&gt;" style="swimlane;fontStyle=0;align=center;verticalAlign=top;childLayout=stackLayout;horizontal=1;startSize=55;horizontalStack=0;resizeParent=1;resizeParentMax=0;resizeLast=0;collapsible=0;marginBottom=0;html=1;" parent="1" vertex="1">
                    <mxGeometry x="38.5" y="1148.25" width="140" height="51.5" as="geometry"/>
                </mxCell>
                <mxCell id="Zb2L4xaHFMzhr6q-Kh5T-10" style="edgeStyle=orthogonalEdgeStyle;shape=connector;rounded=0;html=1;exitX=1;exitY=0.5;exitDx=0;exitDy=0;entryX=0;entryY=0.5;entryDx=0;entryDy=0;labelBackgroundColor=default;strokeColor=default;fontFamily=Helvetica;fontSize=11;fontColor=default;startArrow=none;startFill=0;endArrow=none;endFill=0;startSize=10;endSize=10;" parent="1" source="fdC4uzwdY3IlRcGeozqC-36" target="fdC4uzwdY3IlRcGeozqC-25" edge="1">
                    <mxGeometry relative="1" as="geometry"/>
                </mxCell>
                <mxCell id="fdC4uzwdY3IlRcGeozqC-36" value="&lt;br&gt;&lt;b&gt;FourAngleGoal&lt;/b&gt;" style="swimlane;fontStyle=0;align=center;verticalAlign=top;childLayout=stackLayout;horizontal=1;startSize=55;horizontalStack=0;resizeParent=1;resizeParentMax=0;resizeLast=0;collapsible=0;marginBottom=0;html=1;" parent="1" vertex="1">
                    <mxGeometry x="38.5" y="1219.75" width="140" height="48.5" as="geometry"/>
                </mxCell>
                <mxCell id="Zb2L4xaHFMzhr6q-Kh5T-7" style="edgeStyle=orthogonalEdgeStyle;shape=connector;rounded=0;html=1;exitX=1;exitY=0.5;exitDx=0;exitDy=0;entryX=0;entryY=0.5;entryDx=0;entryDy=0;labelBackgroundColor=default;strokeColor=default;fontFamily=Helvetica;fontSize=11;fontColor=default;startArrow=none;startFill=0;endArrow=none;endFill=0;startSize=10;endSize=10;" parent="1" source="fdC4uzwdY3IlRcGeozqC-38" target="fdC4uzwdY3IlRcGeozqC-27" edge="1">
                    <mxGeometry relative="1" as="geometry"/>
                </mxCell>
                <mxCell id="fdC4uzwdY3IlRcGeozqC-38" value="&lt;br&gt;&lt;b&gt;ThreeColM3TGoal&lt;/b&gt;" style="swimlane;fontStyle=0;align=center;verticalAlign=top;childLayout=stackLayout;horizontal=1;startSize=55;horizontalStack=0;resizeParent=1;resizeParentMax=0;resizeLast=0;collapsible=0;marginBottom=0;html=1;" parent="1" vertex="1">
                    <mxGeometry x="38.5" y="1429.75" width="140" height="51.5" as="geometry"/>
                </mxCell>
                <mxCell id="Zb2L4xaHFMzhr6q-Kh5T-6" style="edgeStyle=orthogonalEdgeStyle;shape=connector;rounded=0;html=1;exitX=1;exitY=0.5;exitDx=0;exitDy=0;entryX=0;entryY=0.5;entryDx=0;entryDy=0;labelBackgroundColor=default;strokeColor=default;fontFamily=Helvetica;fontSize=11;fontColor=default;startArrow=none;startFill=0;endArrow=none;endFill=0;startSize=10;endSize=10;" parent="1" source="fdC4uzwdY3IlRcGeozqC-40" target="fdC4uzwdY3IlRcGeozqC-28" edge="1">
                    <mxGeometry relative="1" as="geometry"/>
                </mxCell>
                <mxCell id="fdC4uzwdY3IlRcGeozqC-40" value="&lt;br&gt;&lt;b&gt;8TilesSameTypeGoal&lt;/b&gt;" style="swimlane;fontStyle=0;align=center;verticalAlign=top;childLayout=stackLayout;horizontal=1;startSize=55;horizontalStack=0;resizeParent=1;resizeParentMax=0;resizeLast=0;collapsible=0;marginBottom=0;html=1;" parent="1" vertex="1">
                    <mxGeometry x="43.5" y="1509.75" width="140" height="50" as="geometry"/>
                </mxCell>
                <mxCell id="fdC4uzwdY3IlRcGeozqC-42" style="edgeStyle=orthogonalEdgeStyle;html=1;fontSize=12;fontColor=#028080;startArrow=block;startFill=1;rounded=0;endArrow=none;endFill=0;startSize=13;" parent="1" edge="1">
                    <mxGeometry relative="1" as="geometry">
                        <mxPoint x="238.5" y="1530.75" as="targetPoint"/>
                        <mxPoint x="238.5" y="1050.75" as="sourcePoint"/>
                        <Array as="points">
                            <mxPoint x="238.5" y="1534.75"/>
                        </Array>
                    </mxGeometry>
                </mxCell>
                <mxCell id="reXhHC1dDX01Fzy9teYw-30" style="edgeStyle=orthogonalEdgeStyle;rounded=0;html=1;exitX=0;exitY=0;exitDx=216.99999999999997;exitDy=72.5;exitPerimeter=0;startArrow=none;startFill=0;endArrow=none;endFill=0;startSize=30;endSize=10;targetPerimeterSpacing=0;" parent="1" source="v_Z5h6ZbUcXQgfyre8mY-16" edge="1">
                    <mxGeometry relative="1" as="geometry">
                        <mxPoint x="240" y="827" as="targetPoint"/>
                        <Array as="points">
                            <mxPoint x="33" y="953"/>
                            <mxPoint x="33" y="827"/>
                        </Array>
                    </mxGeometry>
                </mxCell>
                <mxCell id="v_Z5h6ZbUcXQgfyre8mY-16" value="The strategy used by the common goals is uniquely identified by an id number.&lt;br&gt;The GameState mantains a reference to the number of the two common goal and their point stacks, to use in case the game is paused and then resumed." style="shape=note2;boundedLbl=1;whiteSpace=wrap;html=1;size=25;verticalAlign=top;align=left;fontFamily=Helvetica;fontSize=11;fontColor=default;fontStyle=2" parent="1" vertex="1">
                    <mxGeometry x="-380" y="880.75" width="217" height="120" as="geometry"/>
                </mxCell>
                <mxCell id="RBAjYgS2PFN4WATtA8JI-12" style="edgeStyle=orthogonalEdgeStyle;html=1;exitX=0.5;exitY=0;exitDx=0;exitDy=0;entryX=0.004;entryY=0.136;entryDx=0;entryDy=0;entryPerimeter=0;rounded=0;endArrow=open;endFill=0;endSize=10;" parent="1" source="reXhHC1dDX01Fzy9teYw-11" target="A1pRyGmYKHws_5BumvxA-1" edge="1">
                    <mxGeometry relative="1" as="geometry"/>
                </mxCell>
            </root>
        </mxGraphModel>
    </diagram>
    <diagram id="Umw7mC3x-ypIT99U3yer" name="DRAFT-1">
        <mxGraphModel dx="2026" dy="2226" grid="1" gridSize="10" guides="1" tooltips="1" connect="1" arrows="1" fold="1" page="1" pageScale="1" pageWidth="850" pageHeight="1100" math="0" shadow="0">
            <root>
                <mxCell id="0"/>
                <mxCell id="1" parent="0"/>
                <mxCell id="3" value="&lt;br&gt;&lt;b&gt;Game&lt;br&gt;&lt;/b&gt;" style="swimlane;fontStyle=0;align=center;verticalAlign=top;childLayout=stackLayout;horizontal=1;startSize=40;horizontalStack=0;resizeParent=1;resizeParentMax=0;resizeLast=0;collapsible=0;marginBottom=0;html=1;" parent="1" vertex="1">
                    <mxGeometry x="170" y="160" width="250" height="288" as="geometry"/>
                </mxCell>
                <mxCell id="4" value="attributes" style="text;html=1;strokeColor=none;fillColor=none;align=center;verticalAlign=middle;spacingLeft=4;spacingRight=4;overflow=hidden;rotatable=0;points=[[0,0.5],[1,0.5]];portConstraint=eastwest;" parent="3" vertex="1">
                    <mxGeometry y="40" width="250" height="20" as="geometry"/>
                </mxCell>
                <mxCell id="306" value="- playersNum : int" style="text;html=1;strokeColor=none;fillColor=none;align=left;verticalAlign=middle;spacingLeft=4;spacingRight=4;overflow=hidden;rotatable=0;points=[[0,0.5],[1,0.5]];portConstraint=eastwest;" parent="3" vertex="1">
                    <mxGeometry y="60" width="250" height="20" as="geometry"/>
                </mxCell>
                <mxCell id="5" value="- firstPlayer : Player" style="text;html=1;strokeColor=none;fillColor=none;align=left;verticalAlign=middle;spacingLeft=4;spacingRight=4;overflow=hidden;rotatable=0;points=[[0,0.5],[1,0.5]];portConstraint=eastwest;" parent="3" vertex="1">
                    <mxGeometry y="80" width="250" height="20" as="geometry"/>
                </mxCell>
                <mxCell id="255" value="- currentPlayer : Player" style="text;html=1;strokeColor=none;fillColor=none;align=left;verticalAlign=middle;spacingLeft=4;spacingRight=4;overflow=hidden;rotatable=0;points=[[0,0.5],[1,0.5]];portConstraint=eastwest;" parent="3" vertex="1">
                    <mxGeometry y="100" width="250" height="20" as="geometry"/>
                </mxCell>
                <mxCell id="209" value="- winner: Player" style="text;html=1;strokeColor=none;fillColor=none;align=left;verticalAlign=middle;spacingLeft=4;spacingRight=4;overflow=hidden;rotatable=0;points=[[0,0.5],[1,0.5]];portConstraint=eastwest;" parent="3" vertex="1">
                    <mxGeometry y="120" width="250" height="20" as="geometry"/>
                </mxCell>
                <mxCell id="344" value="- finalTurn: boolean" style="text;html=1;strokeColor=none;fillColor=none;align=left;verticalAlign=middle;spacingLeft=4;spacingRight=4;overflow=hidden;rotatable=0;points=[[0,0.5],[1,0.5]];portConstraint=eastwest;" parent="3" vertex="1">
                    <mxGeometry y="140" width="250" height="20" as="geometry"/>
                </mxCell>
                <mxCell id="8" value="" style="line;strokeWidth=1;fillColor=none;align=left;verticalAlign=middle;spacingTop=-1;spacingLeft=3;spacingRight=3;rotatable=0;labelPosition=right;points=[];portConstraint=eastwest;" parent="3" vertex="1">
                    <mxGeometry y="160" width="250" height="8" as="geometry"/>
                </mxCell>
                <mxCell id="257" value="operations" style="text;html=1;strokeColor=none;fillColor=none;align=center;verticalAlign=middle;spacingLeft=4;spacingRight=4;overflow=hidden;rotatable=0;points=[[0,0.5],[1,0.5]];portConstraint=eastwest;" parent="3" vertex="1">
                    <mxGeometry y="168" width="250" height="20" as="geometry"/>
                </mxCell>
                <mxCell id="341" value="- nextPlayer(): Player" style="text;html=1;strokeColor=none;fillColor=none;align=left;verticalAlign=middle;spacingLeft=4;spacingRight=4;overflow=hidden;rotatable=0;points=[[0,0.5],[1,0.5]];portConstraint=eastwest;" parent="3" vertex="1">
                    <mxGeometry y="188" width="250" height="20" as="geometry"/>
                </mxCell>
                <mxCell id="258" value="+ start(): void" style="text;html=1;strokeColor=none;fillColor=none;align=left;verticalAlign=middle;spacingLeft=4;spacingRight=4;overflow=hidden;rotatable=0;points=[[0,0.5],[1,0.5]];portConstraint=eastwest;" parent="3" vertex="1">
                    <mxGeometry y="208" width="250" height="20" as="geometry"/>
                </mxCell>
                <mxCell id="270" value="+ end(): void" style="text;html=1;strokeColor=none;fillColor=none;align=left;verticalAlign=middle;spacingLeft=4;spacingRight=4;overflow=hidden;rotatable=0;points=[[0,0.5],[1,0.5]];portConstraint=eastwest;" parent="3" vertex="1">
                    <mxGeometry y="228" width="250" height="20" as="geometry"/>
                </mxCell>
                <mxCell id="271" value="+ getPlayerNicknames(): List&amp;lt;String&amp;gt;" style="text;html=1;strokeColor=none;fillColor=none;align=left;verticalAlign=middle;spacingLeft=4;spacingRight=4;overflow=hidden;rotatable=0;points=[[0,0.5],[1,0.5]];portConstraint=eastwest;" parent="3" vertex="1">
                    <mxGeometry y="248" width="250" height="20" as="geometry"/>
                </mxCell>
                <mxCell id="9" value="+ getWinnerNickname(): Optional&amp;lt;String&amp;gt;" style="text;html=1;strokeColor=none;fillColor=none;align=left;verticalAlign=middle;spacingLeft=4;spacingRight=4;overflow=hidden;rotatable=0;points=[[0,0.5],[1,0.5]];portConstraint=eastwest;" parent="3" vertex="1">
                    <mxGeometry y="268" width="250" height="20" as="geometry"/>
                </mxCell>
                <mxCell id="11" value="&lt;b&gt;Player&lt;/b&gt;" style="swimlane;fontStyle=0;align=center;verticalAlign=top;childLayout=stackLayout;horizontal=1;startSize=30;horizontalStack=0;resizeParent=1;resizeParentMax=0;resizeLast=0;collapsible=0;marginBottom=0;html=1;" parent="1" vertex="1">
                    <mxGeometry x="550" y="190" width="220" height="233" as="geometry"/>
                </mxCell>
                <mxCell id="12" value="attributes" style="text;html=1;strokeColor=none;fillColor=none;align=center;verticalAlign=middle;spacingLeft=4;spacingRight=4;overflow=hidden;rotatable=0;points=[[0,0.5],[1,0.5]];portConstraint=eastwest;" parent="11" vertex="1">
                    <mxGeometry y="30" width="220" height="20" as="geometry"/>
                </mxCell>
                <mxCell id="208" value="- nickname : String" style="text;html=1;strokeColor=none;fillColor=none;align=left;verticalAlign=middle;spacingLeft=4;spacingRight=4;overflow=hidden;rotatable=0;points=[[0,0.5],[1,0.5]];portConstraint=eastwest;" parent="11" vertex="1">
                    <mxGeometry y="50" width="220" height="25" as="geometry"/>
                </mxCell>
                <mxCell id="75" value="&amp;nbsp; - score : int" style="text;html=1;align=left;verticalAlign=middle;resizable=0;points=[];autosize=1;strokeColor=none;fillColor=none;" parent="11" vertex="1">
                    <mxGeometry y="75" width="220" height="30" as="geometry"/>
                </mxCell>
                <mxCell id="16" value="" style="line;strokeWidth=1;fillColor=none;align=left;verticalAlign=middle;spacingTop=-1;spacingLeft=3;spacingRight=3;rotatable=0;labelPosition=right;points=[];portConstraint=eastwest;" parent="11" vertex="1">
                    <mxGeometry y="105" width="220" height="8" as="geometry"/>
                </mxCell>
                <mxCell id="17" value="operations" style="text;html=1;strokeColor=none;fillColor=none;align=center;verticalAlign=middle;spacingLeft=4;spacingRight=4;overflow=hidden;rotatable=0;points=[[0,0.5],[1,0.5]];portConstraint=eastwest;" parent="11" vertex="1">
                    <mxGeometry y="113" width="220" height="20" as="geometry"/>
                </mxCell>
                <mxCell id="252" value="+ getNickname() : String" style="text;html=1;strokeColor=none;fillColor=none;align=left;verticalAlign=middle;spacingLeft=4;spacingRight=4;overflow=hidden;rotatable=0;points=[[0,0.5],[1,0.5]];portConstraint=eastwest;" parent="11" vertex="1">
                    <mxGeometry y="133" width="220" height="20" as="geometry"/>
                </mxCell>
                <mxCell id="302" value="+ getScore() : int" style="text;html=1;strokeColor=none;fillColor=none;align=left;verticalAlign=middle;spacingLeft=4;spacingRight=4;overflow=hidden;rotatable=0;points=[[0,0.5],[1,0.5]];portConstraint=eastwest;" parent="11" vertex="1">
                    <mxGeometry y="153" width="220" height="20" as="geometry"/>
                </mxCell>
                <mxCell id="203" value="+ getShelf() : Shelf" style="text;html=1;strokeColor=none;fillColor=none;align=left;verticalAlign=middle;spacingLeft=4;spacingRight=4;overflow=hidden;rotatable=0;points=[[0,0.5],[1,0.5]];portConstraint=eastwest;" parent="11" vertex="1">
                    <mxGeometry y="173" width="220" height="20" as="geometry"/>
                </mxCell>
                <mxCell id="202" value="+ achievedPersonalGoal() : boolean" style="text;html=1;strokeColor=none;fillColor=none;align=left;verticalAlign=middle;spacingLeft=4;spacingRight=4;overflow=hidden;rotatable=0;points=[[0,0.5],[1,0.5]];portConstraint=eastwest;" parent="11" vertex="1">
                    <mxGeometry y="193" width="220" height="20" as="geometry"/>
                </mxCell>
                <mxCell id="18" value="+ addScore(int) : void" style="text;html=1;strokeColor=none;fillColor=none;align=left;verticalAlign=middle;spacingLeft=4;spacingRight=4;overflow=hidden;rotatable=0;points=[[0,0.5],[1,0.5]];portConstraint=eastwest;" parent="11" vertex="1">
                    <mxGeometry y="213" width="220" height="20" as="geometry"/>
                </mxCell>
                <mxCell id="20" style="edgeStyle=none;html=1;exitX=1;exitY=0.5;exitDx=0;exitDy=0;entryX=0;entryY=0.5;entryDx=0;entryDy=0;startArrow=diamondThin;startFill=0;endArrow=none;endFill=0;endSize=10;startSize=30;" parent="1" edge="1">
                    <mxGeometry relative="1" as="geometry">
                        <mxPoint x="420.0000000000002" y="265" as="sourcePoint"/>
                        <mxPoint x="550" y="265" as="targetPoint"/>
                    </mxGeometry>
                </mxCell>
                <mxCell id="235" style="edgeStyle=orthogonalEdgeStyle;rounded=0;html=1;exitX=0.5;exitY=0;exitDx=0;exitDy=0;entryX=0.5;entryY=1;entryDx=0;entryDy=0;endArrow=diamondThin;endFill=0;startSize=10;endSize=30;" parent="1" source="30" target="3" edge="1">
                    <mxGeometry relative="1" as="geometry"/>
                </mxCell>
                <mxCell id="30" value="&lt;br&gt;&lt;b&gt;CommonGoals&lt;/b&gt;" style="swimlane;fontStyle=0;align=center;verticalAlign=top;childLayout=stackLayout;horizontal=1;startSize=55;horizontalStack=0;resizeParent=1;resizeParentMax=0;resizeLast=0;collapsible=0;marginBottom=0;html=1;" parent="1" vertex="1">
                    <mxGeometry x="170" y="524" width="250" height="249" as="geometry"/>
                </mxCell>
                <mxCell id="31" value="attributes" style="text;html=1;strokeColor=none;fillColor=none;align=center;verticalAlign=middle;spacingLeft=4;spacingRight=4;overflow=hidden;rotatable=0;points=[[0,0.5],[1,0.5]];portConstraint=eastwest;" parent="30" vertex="1">
                    <mxGeometry y="55" width="250" height="20" as="geometry"/>
                </mxCell>
                <mxCell id="339" value="- scoreStack1: Stack&amp;lt;Score&amp;gt;" style="text;html=1;strokeColor=none;fillColor=none;align=left;verticalAlign=middle;spacingLeft=4;spacingRight=4;overflow=hidden;rotatable=0;points=[[0,0.5],[1,0.5]];portConstraint=eastwest;fontColor=#FFFFFF;" parent="30" vertex="1">
                    <mxGeometry y="75" width="250" height="20" as="geometry"/>
                </mxCell>
                <mxCell id="33" value="- completedGoal1: List&amp;lt;Player&amp;gt;" style="text;html=1;strokeColor=none;fillColor=none;align=left;verticalAlign=middle;spacingLeft=4;spacingRight=4;overflow=hidden;rotatable=0;points=[[0,0.5],[1,0.5]];portConstraint=eastwest;fontColor=#FFFFFF;" parent="30" vertex="1">
                    <mxGeometry y="95" width="250" height="20" as="geometry"/>
                </mxCell>
                <mxCell id="340" value="- scoreStack2: Stack&amp;lt;Score&amp;gt;" style="text;html=1;strokeColor=none;fillColor=none;align=left;verticalAlign=middle;spacingLeft=4;spacingRight=4;overflow=hidden;rotatable=0;points=[[0,0.5],[1,0.5]];portConstraint=eastwest;fontColor=#FFFFFF;" parent="30" vertex="1">
                    <mxGeometry y="115" width="250" height="20" as="geometry"/>
                </mxCell>
                <mxCell id="213" value="- completeGoal2: List&amp;lt;Player&amp;gt;" style="text;html=1;strokeColor=none;fillColor=none;align=left;verticalAlign=middle;spacingLeft=4;spacingRight=4;overflow=hidden;rotatable=0;points=[[0,0.5],[1,0.5]];portConstraint=eastwest;fontColor=#FFFFFF;" parent="30" vertex="1">
                    <mxGeometry y="135" width="250" height="20" as="geometry"/>
                </mxCell>
                <mxCell id="35" value="" style="line;strokeWidth=1;fillColor=none;align=left;verticalAlign=middle;spacingTop=-1;spacingLeft=3;spacingRight=3;rotatable=0;labelPosition=right;points=[];portConstraint=eastwest;" parent="30" vertex="1">
                    <mxGeometry y="155" width="250" height="8" as="geometry"/>
                </mxCell>
                <mxCell id="36" value="operations" style="text;html=1;strokeColor=none;fillColor=none;align=center;verticalAlign=middle;spacingLeft=4;spacingRight=4;overflow=hidden;rotatable=0;points=[[0,0.5],[1,0.5]];portConstraint=eastwest;" parent="30" vertex="1">
                    <mxGeometry y="163" width="250" height="20" as="geometry"/>
                </mxCell>
                <mxCell id="349" value="+getScore(player: Player) : int" style="text;html=1;strokeColor=none;fillColor=none;align=left;verticalAlign=middle;spacingLeft=4;spacingRight=4;overflow=hidden;rotatable=0;points=[[0,0.5],[1,0.5]];portConstraint=eastwest;" parent="30" vertex="1">
                    <mxGeometry y="183" width="250" height="33" as="geometry"/>
                </mxCell>
                <mxCell id="212" value="+getDescription(goal: int) : String" style="text;html=1;strokeColor=none;fillColor=none;align=left;verticalAlign=middle;spacingLeft=4;spacingRight=4;overflow=hidden;rotatable=0;points=[[0,0.5],[1,0.5]];portConstraint=eastwest;" parent="30" vertex="1">
                    <mxGeometry y="216" width="250" height="33" as="geometry"/>
                </mxCell>
                <mxCell id="38" value="&amp;lt;&amp;lt;interface&amp;gt;&amp;gt;&lt;br&gt;&lt;b&gt;CommonGoalStrategy&lt;/b&gt;" style="swimlane;fontStyle=0;align=center;verticalAlign=top;childLayout=stackLayout;horizontal=1;startSize=40;horizontalStack=0;resizeParent=1;resizeParentMax=0;resizeLast=0;collapsible=0;marginBottom=0;html=1;" parent="1" vertex="1">
                    <mxGeometry x="570" y="610" width="220" height="148" as="geometry"/>
                </mxCell>
                <mxCell id="39" value="attributes" style="text;html=1;strokeColor=none;fillColor=none;align=center;verticalAlign=middle;spacingLeft=4;spacingRight=4;overflow=hidden;rotatable=0;points=[[0,0.5],[1,0.5]];portConstraint=eastwest;" parent="38" vertex="1">
                    <mxGeometry y="40" width="220" height="20" as="geometry"/>
                </mxCell>
                <mxCell id="40" value="-Description: String" style="text;html=1;strokeColor=none;fillColor=none;align=left;verticalAlign=middle;spacingLeft=4;spacingRight=4;overflow=hidden;rotatable=0;points=[[0,0.5],[1,0.5]];portConstraint=eastwest;" parent="38" vertex="1">
                    <mxGeometry y="60" width="220" height="20" as="geometry"/>
                </mxCell>
                <mxCell id="43" value="" style="line;strokeWidth=1;fillColor=none;align=left;verticalAlign=middle;spacingTop=-1;spacingLeft=3;spacingRight=3;rotatable=0;labelPosition=right;points=[];portConstraint=eastwest;" parent="38" vertex="1">
                    <mxGeometry y="80" width="220" height="8" as="geometry"/>
                </mxCell>
                <mxCell id="44" value="operations" style="text;html=1;strokeColor=none;fillColor=none;align=center;verticalAlign=middle;spacingLeft=4;spacingRight=4;overflow=hidden;rotatable=0;points=[[0,0.5],[1,0.5]];portConstraint=eastwest;" parent="38" vertex="1">
                    <mxGeometry y="88" width="220" height="20" as="geometry"/>
                </mxCell>
                <mxCell id="45" value="+ getDescription(): String" style="text;html=1;strokeColor=none;fillColor=none;align=left;verticalAlign=middle;spacingLeft=4;spacingRight=4;overflow=hidden;rotatable=0;points=[[0,0.5],[1,0.5]];portConstraint=eastwest;" parent="38" vertex="1">
                    <mxGeometry y="108" width="220" height="20" as="geometry"/>
                </mxCell>
                <mxCell id="348" value="+ checkGoal(shelf: Shelf): boolean" style="text;html=1;strokeColor=none;fillColor=none;align=left;verticalAlign=middle;spacingLeft=4;spacingRight=4;overflow=hidden;rotatable=0;points=[[0,0.5],[1,0.5]];portConstraint=eastwest;" parent="38" vertex="1">
                    <mxGeometry y="128" width="220" height="20" as="geometry"/>
                </mxCell>
                <mxCell id="177" style="edgeStyle=orthogonalEdgeStyle;rounded=0;comic=0;html=1;exitX=0;exitY=0.5;exitDx=0;exitDy=0;shadow=0;strokeColor=default;startArrow=none;startFill=0;endArrow=none;endFill=0;startSize=30;endSize=10;" parent="1" source="47" edge="1">
                    <mxGeometry relative="1" as="geometry">
                        <mxPoint x="680" y="1227" as="targetPoint"/>
                    </mxGeometry>
                </mxCell>
                <mxCell id="47" value="&lt;br&gt;&lt;b&gt;TwoRowAllDiffGoal&lt;/b&gt;" style="swimlane;fontStyle=0;align=center;verticalAlign=top;childLayout=stackLayout;horizontal=1;startSize=55;horizontalStack=0;resizeParent=1;resizeParentMax=0;resizeLast=0;collapsible=0;marginBottom=0;html=1;" parent="1" vertex="1">
                    <mxGeometry x="740" y="1057" width="140" height="50" as="geometry"/>
                </mxCell>
                <mxCell id="178" style="edgeStyle=orthogonalEdgeStyle;rounded=0;comic=0;html=1;exitX=0;exitY=0.5;exitDx=0;exitDy=0;shadow=0;strokeColor=default;startArrow=none;startFill=0;endArrow=none;endFill=0;startSize=30;endSize=10;" parent="1" source="55" edge="1">
                    <mxGeometry relative="1" as="geometry">
                        <mxPoint x="680" y="1127.0714285714284" as="targetPoint"/>
                    </mxGeometry>
                </mxCell>
                <mxCell id="55" value="&lt;b&gt;&lt;br&gt;TwoColAllDiffGoal&lt;/b&gt;" style="swimlane;fontStyle=0;align=center;verticalAlign=top;childLayout=stackLayout;horizontal=1;startSize=55;horizontalStack=0;resizeParent=1;resizeParentMax=0;resizeLast=0;collapsible=0;marginBottom=0;html=1;" parent="1" vertex="1">
                    <mxGeometry x="740" y="987" width="140" height="51.5" as="geometry"/>
                </mxCell>
                <mxCell id="67" value="&lt;b&gt;Board&lt;/b&gt;" style="swimlane;fontStyle=0;align=center;verticalAlign=top;childLayout=stackLayout;horizontal=1;startSize=30;horizontalStack=0;resizeParent=1;resizeParentMax=0;resizeLast=0;collapsible=0;marginBottom=0;html=1;" parent="1" vertex="1">
                    <mxGeometry x="470" y="-238" width="320" height="238" as="geometry"/>
                </mxCell>
                <mxCell id="68" value="attributes" style="text;html=1;strokeColor=none;fillColor=none;align=center;verticalAlign=middle;spacingLeft=4;spacingRight=4;overflow=hidden;rotatable=0;points=[[0,0.5],[1,0.5]];portConstraint=eastwest;" parent="67" vertex="1">
                    <mxGeometry y="30" width="320" height="20" as="geometry"/>
                </mxCell>
                <mxCell id="285" value="- tileOccupancy : Map&amp;lt;Coordinate, Tile&amp;gt;" style="text;html=1;strokeColor=none;fillColor=none;align=left;verticalAlign=middle;spacingLeft=4;spacingRight=4;overflow=hidden;rotatable=0;points=[[0,0.5],[1,0.5]];portConstraint=eastwest;" parent="67" vertex="1">
                    <mxGeometry y="50" width="320" height="20" as="geometry"/>
                </mxCell>
                <mxCell id="72" value="" style="line;strokeWidth=1;fillColor=none;align=left;verticalAlign=middle;spacingTop=-1;spacingLeft=3;spacingRight=3;rotatable=0;labelPosition=right;points=[];portConstraint=eastwest;" parent="67" vertex="1">
                    <mxGeometry y="70" width="320" height="8" as="geometry"/>
                </mxCell>
                <mxCell id="73" value="operations" style="text;html=1;strokeColor=none;fillColor=none;align=center;verticalAlign=middle;spacingLeft=4;spacingRight=4;overflow=hidden;rotatable=0;points=[[0,0.5],[1,0.5]];portConstraint=eastwest;" parent="67" vertex="1">
                    <mxGeometry y="78" width="320" height="20" as="geometry"/>
                </mxCell>
                <mxCell id="301" value="+checkRefill() : boolean" style="text;html=1;strokeColor=none;fillColor=none;align=left;verticalAlign=middle;spacingLeft=4;spacingRight=4;overflow=hidden;rotatable=0;points=[[0,0.5],[1,0.5]];portConstraint=eastwest;" parent="67" vertex="1">
                    <mxGeometry y="98" width="320" height="20" as="geometry"/>
                </mxCell>
                <mxCell id="308" value="- getRemainingTiles(): List&amp;lt;Tile&amp;gt;" style="text;html=1;strokeColor=none;fillColor=none;align=left;verticalAlign=middle;spacingLeft=4;spacingRight=4;overflow=hidden;rotatable=0;points=[[0,0.5],[1,0.5]];portConstraint=eastwest;" parent="67" vertex="1">
                    <mxGeometry y="118" width="320" height="20" as="geometry"/>
                </mxCell>
                <mxCell id="74" value="+refill(bag: TileBag) : void" style="text;html=1;strokeColor=none;fillColor=none;align=left;verticalAlign=middle;spacingLeft=4;spacingRight=4;overflow=hidden;rotatable=0;points=[[0,0.5],[1,0.5]];portConstraint=eastwest;" parent="67" vertex="1">
                    <mxGeometry y="138" width="320" height="20" as="geometry"/>
                </mxCell>
                <mxCell id="282" value="- hasFreeEdge(Coordinate) : boolean" style="text;html=1;strokeColor=none;fillColor=none;align=left;verticalAlign=middle;spacingLeft=4;spacingRight=4;overflow=hidden;rotatable=0;points=[[0,0.5],[1,0.5]];portConstraint=eastwest;" parent="67" vertex="1">
                    <mxGeometry y="158" width="320" height="20" as="geometry"/>
                </mxCell>
                <mxCell id="299" value="+ selectableTiles(): List&amp;lt;Coordinate&amp;gt;" style="text;html=1;strokeColor=none;fillColor=none;align=left;verticalAlign=middle;spacingLeft=4;spacingRight=4;overflow=hidden;rotatable=0;points=[[0,0.5],[1,0.5]];portConstraint=eastwest;" parent="67" vertex="1">
                    <mxGeometry y="178" width="320" height="20" as="geometry"/>
                </mxCell>
                <mxCell id="245" value="+ isSelectionInline(List&amp;lt;Coordinate&amp;gt;) : boolean" style="text;html=1;strokeColor=none;fillColor=none;align=left;verticalAlign=middle;spacingLeft=4;spacingRight=4;overflow=hidden;rotatable=0;points=[[0,0.5],[1,0.5]];portConstraint=eastwest;" parent="67" vertex="1">
                    <mxGeometry y="198" width="320" height="20" as="geometry"/>
                </mxCell>
                <mxCell id="214" value="+ removeSelection(List&amp;lt;Coordinate&amp;gt;) : List&amp;lt;Tile&amp;gt;" style="text;html=1;strokeColor=none;fillColor=none;align=left;verticalAlign=middle;spacingLeft=4;spacingRight=4;overflow=hidden;rotatable=0;points=[[0,0.5],[1,0.5]];portConstraint=eastwest;" parent="67" vertex="1">
                    <mxGeometry y="218" width="320" height="20" as="geometry"/>
                </mxCell>
                <mxCell id="84" value="&amp;lt;&amp;lt;enumeration&amp;gt;&amp;gt;&lt;br&gt;&lt;b&gt;Tile&lt;/b&gt;" style="swimlane;fontStyle=0;align=center;verticalAlign=top;childLayout=stackLayout;horizontal=1;startSize=40;horizontalStack=0;resizeParent=1;resizeParentMax=0;resizeLast=0;collapsible=0;marginBottom=0;html=1;" parent="1" vertex="1">
                    <mxGeometry x="970" y="-60" width="140" height="181" as="geometry"/>
                </mxCell>
                <mxCell id="86" value="CATS" style="text;html=1;strokeColor=none;fillColor=none;align=left;verticalAlign=middle;spacingLeft=4;spacingRight=4;overflow=hidden;rotatable=0;points=[[0,0.5],[1,0.5]];portConstraint=eastwest;" parent="84" vertex="1">
                    <mxGeometry y="40" width="140" height="20" as="geometry"/>
                </mxCell>
                <mxCell id="88" value="BOOKS" style="text;html=1;strokeColor=none;fillColor=none;align=left;verticalAlign=middle;spacingLeft=4;spacingRight=4;overflow=hidden;rotatable=0;points=[[0,0.5],[1,0.5]];portConstraint=eastwest;" parent="84" vertex="1">
                    <mxGeometry y="60" width="140" height="20" as="geometry"/>
                </mxCell>
                <mxCell id="92" value="GAMES" style="text;html=1;strokeColor=none;fillColor=none;align=left;verticalAlign=middle;spacingLeft=4;spacingRight=4;overflow=hidden;rotatable=0;points=[[0,0.5],[1,0.5]];portConstraint=eastwest;" parent="84" vertex="1">
                    <mxGeometry y="80" width="140" height="20" as="geometry"/>
                </mxCell>
                <mxCell id="94" value="FRAMES" style="text;html=1;strokeColor=none;fillColor=none;align=left;verticalAlign=middle;spacingLeft=4;spacingRight=4;overflow=hidden;rotatable=0;points=[[0,0.5],[1,0.5]];portConstraint=eastwest;" parent="84" vertex="1">
                    <mxGeometry y="100" width="140" height="20" as="geometry"/>
                </mxCell>
                <mxCell id="95" value="TROPHIES" style="text;html=1;strokeColor=none;fillColor=none;align=left;verticalAlign=middle;spacingLeft=4;spacingRight=4;overflow=hidden;rotatable=0;points=[[0,0.5],[1,0.5]];portConstraint=eastwest;" parent="84" vertex="1">
                    <mxGeometry y="120" width="140" height="20" as="geometry"/>
                </mxCell>
                <mxCell id="96" value="PLANTS" style="text;html=1;strokeColor=none;fillColor=none;align=left;verticalAlign=middle;spacingLeft=4;spacingRight=4;overflow=hidden;rotatable=0;points=[[0,0.5],[1,0.5]];portConstraint=eastwest;" parent="84" vertex="1">
                    <mxGeometry y="140" width="140" height="20" as="geometry"/>
                </mxCell>
                <mxCell id="196" value="NOTILE" style="text;html=1;strokeColor=none;fillColor=none;align=left;verticalAlign=middle;spacingLeft=4;spacingRight=4;overflow=hidden;rotatable=0;points=[[0,0.5],[1,0.5]];portConstraint=eastwest;" parent="84" vertex="1">
                    <mxGeometry y="160" width="140" height="21" as="geometry"/>
                </mxCell>
                <mxCell id="97" value="&lt;b&gt;PersonalGoal&lt;/b&gt;" style="swimlane;fontStyle=0;align=center;verticalAlign=top;childLayout=stackLayout;horizontal=1;startSize=29;horizontalStack=0;resizeParent=1;resizeParentMax=0;resizeLast=0;collapsible=0;marginBottom=0;html=1;" parent="1" vertex="1">
                    <mxGeometry x="970" y="560" width="190" height="157" as="geometry"/>
                </mxCell>
                <mxCell id="98" value="attributes" style="text;html=1;strokeColor=none;fillColor=none;align=center;verticalAlign=middle;spacingLeft=4;spacingRight=4;overflow=hidden;rotatable=0;points=[[0,0.5],[1,0.5]];portConstraint=eastwest;" parent="97" vertex="1">
                    <mxGeometry y="29" width="190" height="20" as="geometry"/>
                </mxCell>
                <mxCell id="99" value="- goal : Tile[][]" style="text;html=1;strokeColor=none;fillColor=none;align=left;verticalAlign=middle;spacingLeft=4;spacingRight=4;overflow=hidden;rotatable=0;points=[[0,0.5],[1,0.5]];portConstraint=eastwest;" parent="97" vertex="1">
                    <mxGeometry y="49" width="190" height="20" as="geometry"/>
                </mxCell>
                <mxCell id="347" value="- N_ROW: int" style="text;html=1;strokeColor=none;fillColor=none;align=left;verticalAlign=middle;spacingLeft=4;spacingRight=4;overflow=hidden;rotatable=0;points=[[0,0.5],[1,0.5]];portConstraint=eastwest;" parent="97" vertex="1">
                    <mxGeometry y="69" width="190" height="20" as="geometry"/>
                </mxCell>
                <mxCell id="346" value="- N_COL: int" style="text;html=1;strokeColor=none;fillColor=none;align=left;verticalAlign=middle;spacingLeft=4;spacingRight=4;overflow=hidden;rotatable=0;points=[[0,0.5],[1,0.5]];portConstraint=eastwest;" parent="97" vertex="1">
                    <mxGeometry y="89" width="190" height="20" as="geometry"/>
                </mxCell>
                <mxCell id="102" value="" style="line;strokeWidth=1;fillColor=none;align=left;verticalAlign=middle;spacingTop=-1;spacingLeft=3;spacingRight=3;rotatable=0;labelPosition=right;points=[];portConstraint=eastwest;" parent="97" vertex="1">
                    <mxGeometry y="109" width="190" height="8" as="geometry"/>
                </mxCell>
                <mxCell id="103" value="operations" style="text;html=1;strokeColor=none;fillColor=none;align=center;verticalAlign=middle;spacingLeft=4;spacingRight=4;overflow=hidden;rotatable=0;points=[[0,0.5],[1,0.5]];portConstraint=eastwest;" parent="97" vertex="1">
                    <mxGeometry y="117" width="190" height="20" as="geometry"/>
                </mxCell>
                <mxCell id="104" value="+ compare(shelf: Shelf): boolean" style="text;html=1;strokeColor=none;fillColor=none;align=left;verticalAlign=middle;spacingLeft=4;spacingRight=4;overflow=hidden;rotatable=0;points=[[0,0.5],[1,0.5]];portConstraint=eastwest;" parent="97" vertex="1">
                    <mxGeometry y="137" width="190" height="20" as="geometry"/>
                </mxCell>
                <mxCell id="107" style="rounded=0;html=1;startArrow=none;startFill=0;endArrow=openThin;endFill=0;startSize=30;endSize=10;edgeStyle=orthogonalEdgeStyle;exitX=0.999;exitY=0.108;exitDx=0;exitDy=0;exitPerimeter=0;entryX=0;entryY=0.5;entryDx=0;entryDy=0;" parent="1" source="299" target="92" edge="1">
                    <mxGeometry relative="1" as="geometry">
                        <mxPoint x="880" y="50" as="sourcePoint"/>
                        <mxPoint x="940" y="30" as="targetPoint"/>
                        <Array as="points">
                            <mxPoint x="870" y="-58"/>
                            <mxPoint x="870" y="30"/>
                        </Array>
                    </mxGeometry>
                </mxCell>
                <mxCell id="108" style="rounded=0;html=1;exitX=0.447;exitY=0.003;exitDx=0;exitDy=0;entryX=0.5;entryY=1;entryDx=0;entryDy=0;startArrow=none;startFill=0;endArrow=openThin;endFill=0;startSize=30;endSize=10;edgeStyle=orthogonalEdgeStyle;exitPerimeter=0;" parent="1" source="185" target="84" edge="1">
                    <mxGeometry relative="1" as="geometry">
                        <mxPoint x="930" y="180" as="sourcePoint"/>
                        <mxPoint x="987.5" y="158.5" as="targetPoint"/>
                        <Array as="points">
                            <mxPoint x="1040" y="211"/>
                        </Array>
                    </mxGeometry>
                </mxCell>
                <mxCell id="127" style="edgeStyle=orthogonalEdgeStyle;rounded=0;comic=0;html=1;exitX=1;exitY=0.5;exitDx=0;exitDy=0;entryX=0;entryY=0.5;entryDx=0;entryDy=0;strokeColor=none;endArrow=none;endFill=0;startSize=30;endSize=10;startArrow=diamondThin;startFill=1;" parent="1" source="5" edge="1">
                    <mxGeometry relative="1" as="geometry">
                        <mxPoint x="569.9999999999998" y="85" as="targetPoint"/>
                    </mxGeometry>
                </mxCell>
                <mxCell id="128" style="edgeStyle=orthogonalEdgeStyle;rounded=0;comic=0;html=1;strokeColor=default;startArrow=diamondThin;startFill=0;endArrow=none;endFill=0;startSize=30;endSize=10;shadow=0;entryX=0.106;entryY=1.194;entryDx=0;entryDy=0;entryPerimeter=0;exitX=1;exitY=0.5;exitDx=0;exitDy=0;" parent="1" source="306" target="214" edge="1">
                    <mxGeometry relative="1" as="geometry">
                        <mxPoint x="520" y="20" as="targetPoint"/>
                        <Array as="points">
                            <mxPoint x="500" y="230"/>
                            <mxPoint x="500"/>
                            <mxPoint x="504"/>
                        </Array>
                        <mxPoint x="420" y="250" as="sourcePoint"/>
                    </mxGeometry>
                </mxCell>
                <mxCell id="183" style="edgeStyle=orthogonalEdgeStyle;rounded=0;comic=0;html=1;exitX=0;exitY=0.5;exitDx=0;exitDy=0;shadow=0;strokeColor=default;startArrow=none;startFill=0;endArrow=none;endFill=0;startSize=30;endSize=10;" parent="1" source="132" edge="1">
                    <mxGeometry relative="1" as="geometry">
                        <mxPoint x="680" y="947" as="targetPoint"/>
                        <Array as="points">
                            <mxPoint x="680" y="877"/>
                        </Array>
                    </mxGeometry>
                </mxCell>
                <mxCell id="132" value="&lt;b&gt;&lt;br&gt;DiagonalGoal&lt;br&gt;&lt;br&gt;&lt;/b&gt;" style="swimlane;fontStyle=0;align=center;verticalAlign=top;childLayout=stackLayout;horizontal=1;startSize=55;horizontalStack=0;resizeParent=1;resizeParentMax=0;resizeLast=0;collapsible=0;marginBottom=0;html=1;" parent="1" vertex="1">
                    <mxGeometry x="740" y="845.5" width="140" height="51.5" as="geometry"/>
                </mxCell>
                <mxCell id="181" style="edgeStyle=orthogonalEdgeStyle;rounded=0;comic=0;html=1;exitX=0;exitY=0.5;exitDx=0;exitDy=0;shadow=0;strokeColor=default;startArrow=none;startFill=0;endArrow=none;endFill=0;startSize=30;endSize=10;" parent="1" source="136" edge="1">
                    <mxGeometry relative="1" as="geometry">
                        <mxPoint x="680" y="1009.9285714285716" as="targetPoint"/>
                    </mxGeometry>
                </mxCell>
                <mxCell id="136" value="&lt;br&gt;&lt;b&gt;FourRowM3TGoal&lt;/b&gt;" style="swimlane;fontStyle=0;align=center;verticalAlign=top;childLayout=stackLayout;horizontal=1;startSize=55;horizontalStack=0;resizeParent=1;resizeParentMax=0;resizeLast=0;collapsible=0;marginBottom=0;html=1;" parent="1" vertex="1">
                    <mxGeometry x="740" y="917" width="140" height="48.5" as="geometry"/>
                </mxCell>
                <mxCell id="175" style="edgeStyle=orthogonalEdgeStyle;rounded=0;comic=0;html=1;exitX=0;exitY=0.5;exitDx=0;exitDy=0;shadow=0;strokeColor=default;startArrow=none;startFill=0;endArrow=none;endFill=0;startSize=30;endSize=10;" parent="1" source="140" edge="1">
                    <mxGeometry relative="1" as="geometry">
                        <mxPoint x="680" y="1237" as="targetPoint"/>
                    </mxGeometry>
                </mxCell>
                <mxCell id="140" value="&lt;br&gt;&lt;b&gt;XShapeSameTypeGoal&lt;/b&gt;" style="swimlane;fontStyle=0;align=center;verticalAlign=top;childLayout=stackLayout;horizontal=1;startSize=55;horizontalStack=0;resizeParent=1;resizeParentMax=0;resizeLast=0;collapsible=0;marginBottom=0;html=1;" parent="1" vertex="1">
                    <mxGeometry x="740" y="1127" width="140" height="50" as="geometry"/>
                </mxCell>
                <mxCell id="144" value="&lt;b&gt;&lt;br&gt;TriangleMtrxGoal&lt;/b&gt;" style="swimlane;fontStyle=0;align=center;verticalAlign=top;childLayout=stackLayout;horizontal=1;startSize=55;horizontalStack=0;resizeParent=1;resizeParentMax=0;resizeLast=0;collapsible=0;marginBottom=0;html=1;" parent="1" vertex="1">
                    <mxGeometry x="740" y="1207" width="140" height="50" as="geometry"/>
                </mxCell>
                <mxCell id="176" style="edgeStyle=orthogonalEdgeStyle;rounded=0;comic=0;html=1;exitX=1;exitY=0.5;exitDx=0;exitDy=0;shadow=0;strokeColor=default;startArrow=none;startFill=0;endArrow=none;endFill=0;startSize=30;endSize=10;" parent="1" source="148" edge="1">
                    <mxGeometry relative="1" as="geometry">
                        <mxPoint x="680" y="1227" as="targetPoint"/>
                    </mxGeometry>
                </mxCell>
                <mxCell id="148" value="&lt;br&gt;&lt;b&gt;TwoSqrSameTypeGoal&lt;/b&gt;" style="swimlane;fontStyle=0;align=center;verticalAlign=top;childLayout=stackLayout;horizontal=1;startSize=55;horizontalStack=0;resizeParent=1;resizeParentMax=0;resizeLast=0;collapsible=0;marginBottom=0;html=1;" parent="1" vertex="1">
                    <mxGeometry x="480" y="1057" width="140" height="50" as="geometry"/>
                </mxCell>
                <mxCell id="179" style="edgeStyle=orthogonalEdgeStyle;rounded=0;comic=0;html=1;exitX=1;exitY=0.5;exitDx=0;exitDy=0;shadow=0;strokeColor=default;startArrow=none;startFill=0;endArrow=none;endFill=0;startSize=30;endSize=10;" parent="1" source="152" edge="1">
                    <mxGeometry relative="1" as="geometry">
                        <mxPoint x="680" y="1127.0714285714284" as="targetPoint"/>
                    </mxGeometry>
                </mxCell>
                <mxCell id="152" value="&lt;br&gt;&lt;b&gt;FourFourGoal&lt;/b&gt;" style="swimlane;fontStyle=0;align=center;verticalAlign=top;childLayout=stackLayout;horizontal=1;startSize=55;horizontalStack=0;resizeParent=1;resizeParentMax=0;resizeLast=0;collapsible=0;marginBottom=0;html=1;" parent="1" vertex="1">
                    <mxGeometry x="480" y="987" width="140" height="51.5" as="geometry"/>
                </mxCell>
                <mxCell id="182" style="edgeStyle=orthogonalEdgeStyle;rounded=0;comic=0;html=1;exitX=1;exitY=0.5;exitDx=0;exitDy=0;shadow=0;strokeColor=default;startArrow=none;startFill=0;endArrow=none;endFill=0;startSize=30;endSize=10;" parent="1" source="156" edge="1">
                    <mxGeometry relative="1" as="geometry">
                        <mxPoint x="680" y="877" as="targetPoint"/>
                        <Array as="points">
                            <mxPoint x="620" y="877"/>
                        </Array>
                    </mxGeometry>
                </mxCell>
                <mxCell id="156" value="&lt;b&gt;&lt;br&gt;SixTwoGoal&lt;/b&gt;" style="swimlane;fontStyle=0;align=center;verticalAlign=top;childLayout=stackLayout;horizontal=1;startSize=55;horizontalStack=0;resizeParent=1;resizeParentMax=0;resizeLast=0;collapsible=0;marginBottom=0;html=1;" parent="1" vertex="1">
                    <mxGeometry x="480" y="845.5" width="140" height="51.5" as="geometry"/>
                </mxCell>
                <mxCell id="180" style="edgeStyle=orthogonalEdgeStyle;rounded=0;comic=0;html=1;exitX=1;exitY=0.5;exitDx=0;exitDy=0;shadow=0;strokeColor=default;startArrow=none;startFill=0;endArrow=none;endFill=0;startSize=30;endSize=10;" parent="1" source="160" edge="1">
                    <mxGeometry relative="1" as="geometry">
                        <mxPoint x="680" y="1017" as="targetPoint"/>
                    </mxGeometry>
                </mxCell>
                <mxCell id="160" value="&lt;br&gt;&lt;b&gt;FourAngleGoal&lt;/b&gt;" style="swimlane;fontStyle=0;align=center;verticalAlign=top;childLayout=stackLayout;horizontal=1;startSize=55;horizontalStack=0;resizeParent=1;resizeParentMax=0;resizeLast=0;collapsible=0;marginBottom=0;html=1;" parent="1" vertex="1">
                    <mxGeometry x="480" y="917" width="140" height="48.5" as="geometry"/>
                </mxCell>
                <mxCell id="174" style="edgeStyle=orthogonalEdgeStyle;rounded=0;comic=0;html=1;exitX=1;exitY=0.5;exitDx=0;exitDy=0;shadow=0;strokeColor=default;startArrow=none;startFill=0;endArrow=none;endFill=0;startSize=30;endSize=10;" parent="1" source="164" edge="1">
                    <mxGeometry relative="1" as="geometry">
                        <mxPoint x="680" y="1237" as="targetPoint"/>
                    </mxGeometry>
                </mxCell>
                <mxCell id="164" value="&lt;br&gt;&lt;b&gt;ThreeColM3TGoal&lt;/b&gt;" style="swimlane;fontStyle=0;align=center;verticalAlign=top;childLayout=stackLayout;horizontal=1;startSize=55;horizontalStack=0;resizeParent=1;resizeParentMax=0;resizeLast=0;collapsible=0;marginBottom=0;html=1;" parent="1" vertex="1">
                    <mxGeometry x="480" y="1127" width="140" height="51.5" as="geometry"/>
                </mxCell>
                <mxCell id="173" style="edgeStyle=orthogonalEdgeStyle;rounded=0;comic=0;html=1;exitX=1;exitY=0.5;exitDx=0;exitDy=0;shadow=0;strokeColor=default;startArrow=none;startFill=0;endArrow=none;endFill=0;startSize=30;endSize=10;entryX=0;entryY=0.5;entryDx=0;entryDy=0;" parent="1" source="168" target="144" edge="1">
                    <mxGeometry relative="1" as="geometry">
                        <mxPoint x="680" y="1232" as="targetPoint"/>
                    </mxGeometry>
                </mxCell>
                <mxCell id="168" value="&lt;br&gt;&lt;b&gt;8TilesSameTypeGoal&lt;/b&gt;" style="swimlane;fontStyle=0;align=center;verticalAlign=top;childLayout=stackLayout;horizontal=1;startSize=55;horizontalStack=0;resizeParent=1;resizeParentMax=0;resizeLast=0;collapsible=0;marginBottom=0;html=1;" parent="1" vertex="1">
                    <mxGeometry x="480" y="1207" width="140" height="50" as="geometry"/>
                </mxCell>
                <mxCell id="185" value="&lt;b&gt;Shelf&lt;/b&gt;" style="swimlane;fontStyle=0;align=center;verticalAlign=top;childLayout=stackLayout;horizontal=1;startSize=30;horizontalStack=0;resizeParent=1;resizeParentMax=0;resizeLast=0;collapsible=0;marginBottom=0;html=1;" parent="1" vertex="1">
                    <mxGeometry x="890" y="210" width="320" height="268" as="geometry"/>
                </mxCell>
                <mxCell id="186" value="attributes" style="text;html=1;strokeColor=none;fillColor=none;align=center;verticalAlign=middle;spacingLeft=4;spacingRight=4;overflow=hidden;rotatable=0;points=[[0,0.5],[1,0.5]];portConstraint=eastwest;" parent="185" vertex="1">
                    <mxGeometry y="30" width="320" height="20" as="geometry"/>
                </mxCell>
                <mxCell id="187" value="- contents : Tile[][]&amp;nbsp;" style="text;html=1;strokeColor=none;fillColor=none;align=left;verticalAlign=middle;spacingLeft=4;spacingRight=4;overflow=hidden;rotatable=0;points=[[0,0.5],[1,0.5]];portConstraint=eastwest;" parent="185" vertex="1">
                    <mxGeometry y="50" width="320" height="20" as="geometry"/>
                </mxCell>
                <mxCell id="188" value="- N_ROW:&amp;nbsp; int" style="text;html=1;strokeColor=none;fillColor=none;align=left;verticalAlign=middle;spacingLeft=4;spacingRight=4;overflow=hidden;rotatable=0;points=[[0,0.5],[1,0.5]];portConstraint=eastwest;" parent="185" vertex="1">
                    <mxGeometry y="70" width="320" height="20" as="geometry"/>
                </mxCell>
                <mxCell id="248" value="&amp;nbsp; - N_COL : int" style="text;html=1;align=left;verticalAlign=middle;resizable=0;points=[];autosize=1;strokeColor=none;fillColor=none;" parent="185" vertex="1">
                    <mxGeometry y="90" width="320" height="30" as="geometry"/>
                </mxCell>
                <mxCell id="190" value="" style="line;strokeWidth=1;fillColor=none;align=left;verticalAlign=middle;spacingTop=-1;spacingLeft=3;spacingRight=3;rotatable=0;labelPosition=right;points=[];portConstraint=eastwest;" parent="185" vertex="1">
                    <mxGeometry y="120" width="320" height="8" as="geometry"/>
                </mxCell>
                <mxCell id="191" value="operations" style="text;html=1;strokeColor=none;fillColor=none;align=center;verticalAlign=middle;spacingLeft=4;spacingRight=4;overflow=hidden;rotatable=0;points=[[0,0.5],[1,0.5]];portConstraint=eastwest;" parent="185" vertex="1">
                    <mxGeometry y="128" width="320" height="20" as="geometry"/>
                </mxCell>
                <mxCell id="268" value="+ getTile(row: int, col: int) :&amp;nbsp; Tile" style="text;html=1;strokeColor=none;fillColor=none;align=left;verticalAlign=middle;spacingLeft=4;spacingRight=4;overflow=hidden;rotatable=0;points=[[0,0.5],[1,0.5]];portConstraint=eastwest;" parent="185" vertex="1">
                    <mxGeometry y="148" width="320" height="20" as="geometry"/>
                </mxCell>
                <mxCell id="269" value="+ isFull() : boolean" style="text;html=1;strokeColor=none;fillColor=none;align=left;verticalAlign=middle;spacingLeft=4;spacingRight=4;overflow=hidden;rotatable=0;points=[[0,0.5],[1,0.5]];portConstraint=eastwest;" parent="185" vertex="1">
                    <mxGeometry y="168" width="320" height="20" as="geometry"/>
                </mxCell>
                <mxCell id="192" value="+ maxSelectionLength(): int" style="text;html=1;strokeColor=none;fillColor=none;align=left;verticalAlign=middle;spacingLeft=4;spacingRight=4;overflow=hidden;rotatable=0;points=[[0,0.5],[1,0.5]];portConstraint=eastwest;" parent="185" vertex="1">
                    <mxGeometry y="188" width="320" height="20" as="geometry"/>
                </mxCell>
                <mxCell id="247" value="+ availableColumns(selection_length: int): List&amp;lt;Integer&amp;gt;" style="text;html=1;strokeColor=none;fillColor=none;align=left;verticalAlign=middle;spacingLeft=4;spacingRight=4;overflow=hidden;rotatable=0;points=[[0,0.5],[1,0.5]];portConstraint=eastwest;" parent="185" vertex="1">
                    <mxGeometry y="208" width="320" height="20" as="geometry"/>
                </mxCell>
                <mxCell id="342" value="+ addTiles(tiles: List&amp;lt;Tiles&amp;gt;, col: int&amp;gt; : void" style="text;html=1;strokeColor=none;fillColor=none;align=left;verticalAlign=middle;spacingLeft=4;spacingRight=4;overflow=hidden;rotatable=0;points=[[0,0.5],[1,0.5]];portConstraint=eastwest;" parent="185" vertex="1">
                    <mxGeometry y="228" width="320" height="20" as="geometry"/>
                </mxCell>
                <mxCell id="249" value="+ getScore(): int" style="text;html=1;strokeColor=none;fillColor=none;align=left;verticalAlign=middle;spacingLeft=4;spacingRight=4;overflow=hidden;rotatable=0;points=[[0,0.5],[1,0.5]];portConstraint=eastwest;" parent="185" vertex="1">
                    <mxGeometry y="248" width="320" height="20" as="geometry"/>
                </mxCell>
                <mxCell id="219" style="edgeStyle=orthogonalEdgeStyle;rounded=0;html=1;exitX=0;exitY=0;exitDx=92.5;exitDy=0;exitPerimeter=0;endArrow=classic;endFill=1;startSize=10;endSize=10;entryX=0.456;entryY=1.216;entryDx=0;entryDy=0;entryPerimeter=0;" parent="1" source="216" target="18" edge="1">
                    <mxGeometry relative="1" as="geometry">
                        <Array as="points">
                            <mxPoint x="650" y="490"/>
                        </Array>
                        <mxPoint x="650" y="450" as="targetPoint"/>
                    </mxGeometry>
                </mxCell>
                <mxCell id="216" value="Player constructor takes personal goal seed ranging from 0 to 11" style="shape=note2;boundedLbl=1;whiteSpace=wrap;html=1;size=25;verticalAlign=top;align=center;" parent="1" vertex="1">
                    <mxGeometry x="555" y="490" width="210" height="81" as="geometry"/>
                </mxCell>
                <mxCell id="218" value="Constructor takes the number of players as input and initializes randomly the CommonGoalStrategy" style="shape=note2;boundedLbl=1;whiteSpace=wrap;html=1;size=25;verticalAlign=top;align=center;" parent="1" vertex="1">
                    <mxGeometry x="170" y="840" width="250" height="90" as="geometry"/>
                </mxCell>
                <mxCell id="259" value="&lt;b&gt;Coordinate&lt;/b&gt;" style="swimlane;fontStyle=0;align=center;verticalAlign=top;childLayout=stackLayout;horizontal=1;startSize=30;horizontalStack=0;resizeParent=1;resizeParentMax=0;resizeLast=0;collapsible=0;marginBottom=0;html=1;" parent="1" vertex="1">
                    <mxGeometry x="910" y="-320" width="220" height="238" as="geometry"/>
                </mxCell>
                <mxCell id="260" value="attributes" style="text;html=1;strokeColor=none;fillColor=none;align=center;verticalAlign=middle;spacingLeft=4;spacingRight=4;overflow=hidden;rotatable=0;points=[[0,0.5],[1,0.5]];portConstraint=eastwest;" parent="259" vertex="1">
                    <mxGeometry y="30" width="220" height="20" as="geometry"/>
                </mxCell>
                <mxCell id="267" value="- row: int" style="text;html=1;strokeColor=none;fillColor=none;align=left;verticalAlign=middle;spacingLeft=4;spacingRight=4;overflow=hidden;rotatable=0;points=[[0,0.5],[1,0.5]];portConstraint=eastwest;" parent="259" vertex="1">
                    <mxGeometry y="50" width="220" height="20" as="geometry"/>
                </mxCell>
                <mxCell id="261" value="- col: int" style="text;html=1;strokeColor=none;fillColor=none;align=left;verticalAlign=middle;spacingLeft=4;spacingRight=4;overflow=hidden;rotatable=0;points=[[0,0.5],[1,0.5]];portConstraint=eastwest;" parent="259" vertex="1">
                    <mxGeometry y="70" width="220" height="20" as="geometry"/>
                </mxCell>
                <mxCell id="264" value="" style="line;strokeWidth=1;fillColor=none;align=left;verticalAlign=middle;spacingTop=-1;spacingLeft=3;spacingRight=3;rotatable=0;labelPosition=right;points=[];portConstraint=eastwest;" parent="259" vertex="1">
                    <mxGeometry y="90" width="220" height="8" as="geometry"/>
                </mxCell>
                <mxCell id="265" value="operations" style="text;html=1;strokeColor=none;fillColor=none;align=center;verticalAlign=middle;spacingLeft=4;spacingRight=4;overflow=hidden;rotatable=0;points=[[0,0.5],[1,0.5]];portConstraint=eastwest;" parent="259" vertex="1">
                    <mxGeometry y="98" width="220" height="20" as="geometry"/>
                </mxCell>
                <mxCell id="288" value="+ getRow(): int" style="text;html=1;strokeColor=none;fillColor=none;align=left;verticalAlign=middle;spacingLeft=4;spacingRight=4;overflow=hidden;rotatable=0;points=[[0,0.5],[1,0.5]];portConstraint=eastwest;" parent="259" vertex="1">
                    <mxGeometry y="118" width="220" height="20" as="geometry"/>
                </mxCell>
                <mxCell id="292" value="+ getCol(): int" style="text;html=1;strokeColor=none;fillColor=none;align=left;verticalAlign=middle;spacingLeft=4;spacingRight=4;overflow=hidden;rotatable=0;points=[[0,0.5],[1,0.5]];portConstraint=eastwest;" parent="259" vertex="1">
                    <mxGeometry y="138" width="220" height="20" as="geometry"/>
                </mxCell>
                <mxCell id="296" value="+ getLeft(): Coordinate" style="text;html=1;strokeColor=none;fillColor=none;align=left;verticalAlign=middle;spacingLeft=4;spacingRight=4;overflow=hidden;rotatable=0;points=[[0,0.5],[1,0.5]];portConstraint=eastwest;" parent="259" vertex="1">
                    <mxGeometry y="158" width="220" height="20" as="geometry"/>
                </mxCell>
                <mxCell id="297" value="+ getRight(): Coordinate" style="text;html=1;strokeColor=none;fillColor=none;align=left;verticalAlign=middle;spacingLeft=4;spacingRight=4;overflow=hidden;rotatable=0;points=[[0,0.5],[1,0.5]];portConstraint=eastwest;" parent="259" vertex="1">
                    <mxGeometry y="178" width="220" height="20" as="geometry"/>
                </mxCell>
                <mxCell id="298" value="+ getUp(): Coordinate" style="text;html=1;strokeColor=none;fillColor=none;align=left;verticalAlign=middle;spacingLeft=4;spacingRight=4;overflow=hidden;rotatable=0;points=[[0,0.5],[1,0.5]];portConstraint=eastwest;" parent="259" vertex="1">
                    <mxGeometry y="198" width="220" height="20" as="geometry"/>
                </mxCell>
                <mxCell id="293" value="+ getDown(): Coordinate" style="text;html=1;strokeColor=none;fillColor=none;align=left;verticalAlign=middle;spacingLeft=4;spacingRight=4;overflow=hidden;rotatable=0;points=[[0,0.5],[1,0.5]];portConstraint=eastwest;" parent="259" vertex="1">
                    <mxGeometry y="218" width="220" height="20" as="geometry"/>
                </mxCell>
                <mxCell id="305" style="edgeStyle=orthogonalEdgeStyle;html=1;fontSize=12;fontColor=#028080;startArrow=block;startFill=1;rounded=0;endArrow=none;endFill=0;startSize=13;" parent="1" edge="1">
                    <mxGeometry relative="1" as="geometry">
                        <mxPoint x="680" y="877" as="targetPoint"/>
                        <mxPoint x="680" y="760" as="sourcePoint"/>
                        <Array as="points">
                            <mxPoint x="680" y="760"/>
                        </Array>
                    </mxGeometry>
                </mxCell>
                <mxCell id="309" style="rounded=0;html=1;startArrow=none;startFill=0;endArrow=openThin;endFill=0;startSize=30;endSize=10;edgeStyle=orthogonalEdgeStyle;entryX=0;entryY=0.5;entryDx=0;entryDy=0;" parent="1" target="297" edge="1">
                    <mxGeometry relative="1" as="geometry">
                        <mxPoint x="790" y="-132" as="sourcePoint"/>
                        <mxPoint x="950" y="40" as="targetPoint"/>
                        <Array as="points">
                            <mxPoint x="790" y="-132"/>
                        </Array>
                    </mxGeometry>
                </mxCell>
                <mxCell id="318" value="&lt;b&gt;TileBag&lt;/b&gt;" style="swimlane;fontStyle=0;align=center;verticalAlign=top;childLayout=stackLayout;horizontal=1;startSize=30;horizontalStack=0;resizeParent=1;resizeParentMax=0;resizeLast=0;collapsible=0;marginBottom=0;html=1;" parent="1" vertex="1">
                    <mxGeometry x="185" y="-180" width="220" height="138" as="geometry"/>
                </mxCell>
                <mxCell id="319" value="attributes" style="text;html=1;strokeColor=none;fillColor=none;align=center;verticalAlign=middle;spacingLeft=4;spacingRight=4;overflow=hidden;rotatable=0;points=[[0,0.5],[1,0.5]];portConstraint=eastwest;" parent="318" vertex="1">
                    <mxGeometry y="30" width="220" height="20" as="geometry"/>
                </mxCell>
                <mxCell id="320" value="- bag: Map&amp;lt;Tile, Integer&amp;gt;" style="text;html=1;strokeColor=none;fillColor=none;align=left;verticalAlign=middle;spacingLeft=4;spacingRight=4;overflow=hidden;rotatable=0;points=[[0,0.5],[1,0.5]];portConstraint=eastwest;" parent="318" vertex="1">
                    <mxGeometry y="50" width="220" height="20" as="geometry"/>
                </mxCell>
                <mxCell id="322" value="" style="line;strokeWidth=1;fillColor=none;align=left;verticalAlign=middle;spacingTop=-1;spacingLeft=3;spacingRight=3;rotatable=0;labelPosition=right;points=[];portConstraint=eastwest;" parent="318" vertex="1">
                    <mxGeometry y="70" width="220" height="8" as="geometry"/>
                </mxCell>
                <mxCell id="323" value="operations" style="text;html=1;strokeColor=none;fillColor=none;align=center;verticalAlign=middle;spacingLeft=4;spacingRight=4;overflow=hidden;rotatable=0;points=[[0,0.5],[1,0.5]];portConstraint=eastwest;" parent="318" vertex="1">
                    <mxGeometry y="78" width="220" height="20" as="geometry"/>
                </mxCell>
                <mxCell id="324" value="+ addTiles(tiles: List&amp;lt;Tile&amp;gt;): void" style="text;html=1;strokeColor=none;fillColor=none;align=left;verticalAlign=middle;spacingLeft=4;spacingRight=4;overflow=hidden;rotatable=0;points=[[0,0.5],[1,0.5]];portConstraint=eastwest;" parent="318" vertex="1">
                    <mxGeometry y="98" width="220" height="20" as="geometry"/>
                </mxCell>
                <mxCell id="327" value="+ getRandomTile(): Tile" style="text;html=1;strokeColor=none;fillColor=none;align=left;verticalAlign=middle;spacingLeft=4;spacingRight=4;overflow=hidden;rotatable=0;points=[[0,0.5],[1,0.5]];portConstraint=eastwest;" parent="318" vertex="1">
                    <mxGeometry y="118" width="220" height="20" as="geometry"/>
                </mxCell>
                <mxCell id="330" style="edgeStyle=orthogonalEdgeStyle;rounded=0;comic=0;html=1;strokeColor=default;startArrow=diamondThin;startFill=0;endArrow=none;endFill=0;startSize=30;endSize=10;shadow=0;" parent="1" edge="1">
                    <mxGeometry relative="1" as="geometry">
                        <mxPoint x="290" y="-40" as="targetPoint"/>
                        <Array as="points">
                            <mxPoint x="290" y="162"/>
                            <mxPoint x="290" y="-48"/>
                        </Array>
                        <mxPoint x="290" y="162" as="sourcePoint"/>
                    </mxGeometry>
                </mxCell>
                <mxCell id="331" style="rounded=0;html=1;startArrow=none;startFill=0;endArrow=openThin;endFill=0;startSize=30;endSize=10;edgeStyle=orthogonalEdgeStyle;entryX=1;entryY=0.5;entryDx=0;entryDy=0;exitX=0;exitY=0.5;exitDx=0;exitDy=0;" parent="1" source="282" target="324" edge="1">
                    <mxGeometry relative="1" as="geometry">
                        <mxPoint x="360" y="80" as="sourcePoint"/>
                        <mxPoint x="480" y="80" as="targetPoint"/>
                        <Array as="points">
                            <mxPoint x="470" y="-72"/>
                        </Array>
                    </mxGeometry>
                </mxCell>
                <mxCell id="337" style="rounded=0;html=1;startArrow=diamondThin;startFill=0;endArrow=none;endFill=0;startSize=30;endSize=10;edgeStyle=orthogonalEdgeStyle;entryX=0;entryY=0.5;entryDx=0;entryDy=0;" parent="1" edge="1">
                    <mxGeometry relative="1" as="geometry">
                        <mxPoint x="770" y="370" as="sourcePoint"/>
                        <mxPoint x="890" y="370" as="targetPoint"/>
                        <Array as="points">
                            <mxPoint x="770" y="370"/>
                        </Array>
                    </mxGeometry>
                </mxCell>
                <mxCell id="338" style="rounded=0;html=1;startArrow=diamondThin;startFill=0;endArrow=none;endFill=0;startSize=30;endSize=10;edgeStyle=orthogonalEdgeStyle;entryX=0;entryY=0.5;entryDx=0;entryDy=0;" parent="1" target="99" edge="1">
                    <mxGeometry relative="1" as="geometry">
                        <mxPoint x="770" y="400" as="sourcePoint"/>
                        <mxPoint x="890" y="400" as="targetPoint"/>
                        <Array as="points">
                            <mxPoint x="850" y="400"/>
                            <mxPoint x="850" y="619"/>
                        </Array>
                    </mxGeometry>
                </mxCell>
                <mxCell id="351" style="edgeStyle=orthogonalEdgeStyle;rounded=0;html=1;exitX=0;exitY=0;exitDx=92.5;exitDy=0;exitPerimeter=0;endArrow=classic;endFill=1;startSize=10;endSize=10;entryX=0.456;entryY=1.216;entryDx=0;entryDy=0;entryPerimeter=0;" parent="1" edge="1">
                    <mxGeometry relative="1" as="geometry">
                        <Array as="points">
                            <mxPoint x="290" y="840"/>
                            <mxPoint x="293" y="840"/>
                        </Array>
                        <mxPoint x="290" y="835.6800000000001" as="sourcePoint"/>
                        <mxPoint x="292.82000000000016" y="773.0000000000002" as="targetPoint"/>
                    </mxGeometry>
                </mxCell>
                <mxCell id="352" style="edgeStyle=none;html=1;exitX=1;exitY=0.5;exitDx=0;exitDy=0;startArrow=diamondThin;startFill=0;endArrow=none;endFill=0;endSize=10;startSize=30;" parent="1" edge="1">
                    <mxGeometry relative="1" as="geometry">
                        <mxPoint x="420" y="670" as="sourcePoint"/>
                        <mxPoint x="570" y="670" as="targetPoint"/>
                    </mxGeometry>
                </mxCell>
            </root>
        </mxGraphModel>
    </diagram>
</mxfile>